<svg xmlns="http://www.w3.org/2000/svg" version="1.1" xmlns:xlink="http://www.w3.org/1999/xlink" xmlns:svgjs="http://svgjs.dev/svgjs" width="1000" height="1000"><g clip-path="url(#SvgjsClipPath1088)"><rect width="1000" height="1000" fill="#ffffff"></rect><g transform="matrix(34.61538461538461,0,0,34.61538461538461,50,50)"><svg xmlns="http://www.w3.org/2000/svg" version="1.1" xmlns:xlink="http://www.w3.org/1999/xlink" xmlns:svgjs="http://svgjs.dev/svgjs" width="26" height="26"><svg width="26" height="26" viewBox="0 0 26 26" fill="none" xmlns="http://www.w3.org/2000/svg">
<circle cx="13" cy="13" r="13" fill="#2E517D"></circle>
<path d="M23 14C21.7735 13.496 19.5 11.5 15.5 14.5C14.4485 13.912 12.5 12.5 9.5 15C9.1495 13.572 9.0795 10.322 9.5 7.5C9.675 7.08 10.397 6.7825 12.5 9L15 6.5C14.825 5.408 13.5 4 9.5 4C8 4 6.631 5.2825 6 7.5C5.2115 9.7675 4 15 4 18C4 18.924 5.25 21 10 21C11 21 13.925 21.1125 17.5 19.5L20.5 22" stroke="white" stroke-width="2" stroke-linecap="round" stroke-linejoin="round"></path>
</svg></svg></g></g><defs><clipPath id="SvgjsClipPath1088"><rect width="1000" height="1000" x="0" y="0" rx="500" ry="500"></rect></clipPath></defs></svg>