<svg width="104" viewBox="0 0 104 102" fill="none" xmlns="http://www.w3.org/2000/svg" preserveAspectRatio='xMidYMid meet'>
<path d="M29.2314 99.7191L30.7847 81.8408L64.1354 86.5616L66.5415 99.7191H29.2314Z" fill="#231F20"/>
<path d="M29.2309 99.9323H66.541C66.6019 99.9323 66.6628 99.9019 66.6933 99.8714C66.7237 99.8105 66.7542 99.7496 66.7237 99.6887L64.2871 86.5312C64.2567 86.4398 64.1958 86.3789 64.1044 86.3484L30.8147 81.658C30.7538 81.658 30.6928 81.658 30.6624 81.6885C30.6319 81.7189 30.6015 81.7799 30.571 81.8408L29.0482 99.7191C29.0482 99.7801 29.0482 99.841 29.1091 99.8714C29.1395 99.9019 29.2004 99.9323 29.2309 99.9323ZM66.2669 99.5059H29.4441L30.9365 82.0844L63.9217 86.7444L66.2669 99.5059Z" fill="#231F20"/>
<path d="M27.3734 57.6273L28.8658 95.0592C28.8658 95.0592 55.9422 93.3536 67.9424 92.3485L65.0794 63.7797L76.379 69.1706L84.6938 53.7288C84.6938 53.7288 60.6022 33.2311 39.2822 37.9824" fill="#FFB300"/>
<path d="M40.0438 16.1141C42.054 14.1953 44.3383 13.7689 46.9271 13.0989C47.9322 12.8552 48.6936 12.2765 49.7596 12.1852C50.8256 12.0938 52.1353 12.0938 53.0186 12.7334C54.115 13.5253 55.1201 14.8654 55.7597 16.0228C56.4907 17.3324 56.8562 18.7639 57.2521 20.2259C57.5262 21.2919 57.8003 22.3579 58.0745 23.4239C58.3486 24.3985 58.5618 25.4036 58.7445 26.4391C58.9577 27.9011 59.0795 29.8199 58.5618 31.2514C58.0745 32.5915 56.7343 32.7133 55.4856 32.8961C51.8003 33.4443 47.9017 33.5052 44.3078 32.4087C37.8813 30.4595 34.7747 22.3274 39.2824 16.9365C39.526 16.6015 39.7697 16.3578 40.0438 16.1141Z" fill="#231F20"/>
<path d="M50.6732 33.4443C52.2875 33.4443 53.9322 33.3225 55.5159 33.0484L55.7596 33.0179C56.9474 32.8352 58.2875 32.6524 58.7749 31.2818C59.2013 30.094 59.2622 28.4798 58.9576 26.3782C58.7748 25.3731 58.5616 24.3376 58.2875 23.363L57.4347 20.165C57.0692 18.7335 56.6733 17.2411 55.9119 15.9314C55.2114 14.6217 54.2672 13.4948 53.1098 12.5811C52.3484 12.0329 51.2519 11.8501 49.7291 12.0024C49.1199 12.0938 48.5412 12.2461 47.993 12.5202C47.6275 12.6725 47.262 12.8248 46.8661 12.9161L46.2874 13.0684C43.9726 13.6471 41.8102 14.1649 39.8914 15.9923C39.6173 16.236 39.3736 16.5101 39.1604 16.7842C37.0893 19.2208 36.4193 22.5406 37.3939 25.5863C38.3685 28.9366 40.9574 31.556 44.2772 32.5915C46.3483 33.2006 48.5108 33.5052 50.6732 33.4748V33.4443ZM50.6732 12.3375C51.6174 12.3375 52.3484 12.5202 52.8662 12.8857C53.9626 13.7689 54.9068 14.8654 55.5464 16.1142C56.2774 17.3934 56.6428 18.8553 57.0083 20.2563L57.8307 23.4543C58.1048 24.429 58.318 25.4341 58.5007 26.4391C58.8053 28.4493 58.7444 30.0331 58.3484 31.16C57.9525 32.2869 56.856 32.4392 55.6682 32.622L55.4246 32.6524C51.2519 33.292 47.5057 33.1397 44.3381 32.1651C41.1706 31.16 38.6731 28.6321 37.7289 25.4341C36.8152 22.5102 37.4548 19.3426 39.4041 17.0279C39.6173 16.7538 39.8609 16.5101 40.1046 16.2664C41.932 14.5304 43.9422 14.0431 46.3179 13.4644L46.8661 13.3121C47.262 13.1903 47.6884 13.0684 48.0539 12.8857C48.5717 12.642 49.0895 12.4593 49.6681 12.3984C50.0641 12.3679 50.3687 12.3375 50.6732 12.3375Z" fill="#231F20"/>
<path d="M55.3941 38.3784L55.4245 46.2363C55.4245 46.2363 52.8661 50.9572 47.8711 49.5562C42.8762 48.1551 42.1756 44.1348 42.1756 44.1348C42.0843 39.2616 42.2366 34.2666 41.8711 29.4239C41.8711 29.363 43.5462 27.9011 43.6985 27.6574C44.0944 27.1092 44.3381 26.4696 44.4295 25.7995C44.795 23.6371 44.9473 21.3832 45.13 19.1903L46.1046 19.099C46.196 18.9467 46.2265 18.7335 46.196 18.5507C47.3838 20.0127 48.9067 21.17 50.6428 21.8706C51.6174 22.2665 52.7138 22.5102 53.7189 22.1751C53.1098 21.1091 52.6529 19.9518 52.4397 18.7335C53.7798 20.2563 55.3027 21.6269 57.0083 22.7538C58.8053 23.9416 58.988 21.9315 59.2621 24.033C59.5667 26.3478 59.5972 32.226 59.1403 34.5408C58.3484 38.4088 55.3636 38.3784 55.3941 38.3784Z" fill="white"/>
<path d="M49.6987 50.013C53.5667 50.013 55.6074 46.3886 55.6074 46.3277C55.6378 46.2973 55.6378 46.2668 55.6378 46.2363L55.6074 38.5611C56.3383 38.4698 58.6835 37.952 59.3536 34.5712C59.8409 32.1651 59.78 26.226 59.5059 23.9721C59.4145 23.2107 59.3231 22.9366 59.1404 22.8148C58.9881 22.7234 58.8054 22.7234 58.6226 22.8148C58.318 22.9061 57.9221 23.028 57.1607 22.5406C55.4855 21.4442 53.9627 20.1041 52.6226 18.5812C52.5616 18.5203 52.4703 18.4898 52.3789 18.5203C52.2875 18.5508 52.2571 18.6421 52.2571 18.764C52.4703 19.8909 52.8662 20.9873 53.4449 21.9924C52.7139 22.1752 51.8307 22.0533 50.7647 21.6269C49.0591 20.9264 47.5667 19.83 46.4093 18.368C46.3484 18.2766 46.2265 18.2766 46.1352 18.3071C46.0438 18.3376 45.9829 18.4594 46.0133 18.5508C46.0438 18.6421 46.0438 18.7335 46.0133 18.8249L45.1301 18.9162C45.0387 18.9162 44.9473 19.0076 44.9473 19.099L44.856 20.0736C44.7037 21.9315 44.5514 23.8503 44.2468 25.6777C44.1859 26.3173 43.9422 26.9265 43.5768 27.4747C43.4854 27.5965 42.8763 28.1752 42.4499 28.5712C41.9321 29.028 41.6884 29.3021 41.6884 29.3935C41.9321 32.6524 41.9321 36.0027 41.9625 39.2616C41.9625 40.8454 41.9625 42.4901 41.993 44.0739C41.993 44.1043 41.993 44.1348 42.0234 44.1653C42.1757 44.8049 43.1808 48.3683 47.8408 49.7085C48.4195 49.9217 49.0591 50.013 49.6987 50.013ZM55.2114 46.1754C54.9373 46.6932 52.5007 50.6222 47.9321 49.343C43.3027 48.0029 42.4498 44.3785 42.3889 44.1043C42.3585 42.5206 42.3585 40.8759 42.3585 39.2921C42.3585 36.0636 42.328 32.7134 42.1148 29.4849C42.2366 29.3631 42.4803 29.1499 42.724 28.9062C43.1504 28.5407 43.5463 28.1448 43.9118 27.7488C44.3382 27.1701 44.5819 26.5001 44.6732 25.7996C44.9778 23.9417 45.1605 22.0229 45.3128 20.165L45.3737 19.3731L46.1656 19.3122C46.2265 19.3122 46.2875 19.2817 46.3179 19.2208C46.3484 19.1904 46.3484 19.1294 46.3788 19.099C47.5362 20.4086 48.9677 21.4137 50.5819 22.0838C51.8611 22.6016 52.8967 22.6929 53.8104 22.3884C53.8713 22.3579 53.9322 22.3274 53.9322 22.2665C53.9627 22.2056 53.9627 22.1447 53.9322 22.0838C53.4449 21.2919 53.1099 20.4391 52.8662 19.5254C54.0845 20.8046 55.4246 21.962 56.917 22.9366C57.8307 23.5457 58.4094 23.363 58.7444 23.2716C58.8054 23.2412 58.8663 23.2412 58.8967 23.2412C58.9881 23.5153 59.049 23.7894 59.0795 24.0635C59.3536 26.2564 59.4145 32.1347 58.9576 34.5103C58.2267 38.1652 55.5464 38.1956 55.4246 38.1652C55.3637 38.1652 55.3028 38.1956 55.2723 38.2261C55.2419 38.2566 55.2114 38.3175 55.2114 38.3784V46.1754Z" fill="#231F20"/>
<path d="M44.46 33.0179C43.4549 33.4138 42.3584 33.3834 41.3838 32.957C39.9828 32.3478 39.1604 30.9773 38.9472 29.4848C38.8558 28.9366 38.8863 28.3884 39.0081 27.8706C39.1604 27.3224 39.5259 26.896 40.0437 26.6523C40.6528 26.4087 41.3533 26.561 41.9929 26.7132C42.9371 26.9569 43.0589 27.4442 43.6985 28.0534C43.6376 27.9924 43.5463 27.8097 43.4853 27.7792" fill="white"/>
<path d="M42.9677 33.5052C43.4854 33.5052 44.0337 33.3833 44.521 33.2006C44.6428 33.1701 44.6733 33.0179 44.6428 32.9265C44.6124 32.8047 44.4601 32.7742 44.3687 32.8047C43.4245 33.1701 42.389 33.1701 41.4448 32.7437C40.1961 32.1955 39.3737 31.0077 39.1301 29.4544C39.0387 28.9366 39.0692 28.4188 39.191 27.9315C39.3128 27.4442 39.6478 27.0482 40.1047 26.8655C40.6225 26.6523 41.2316 26.7741 41.9017 26.9569C42.3585 27.0787 42.7545 27.3528 43.0591 27.7183C43.1809 27.8706 43.3332 28.0229 43.5159 28.2056L43.5464 28.2361C43.6377 28.3274 43.7596 28.297 43.8509 28.2056C43.9423 28.1142 43.9118 27.9924 43.8509 27.901L43.8205 27.8706L43.7596 27.7792C43.7291 27.7183 43.6682 27.6574 43.6073 27.5965C43.5768 27.566 43.5464 27.566 43.5159 27.566L43.3941 27.4137C43.059 26.9569 42.5717 26.6218 42.0235 26.5C41.4448 26.3477 40.6529 26.1345 39.9524 26.4391C39.4042 26.7132 38.9778 27.2005 38.795 27.7792C38.6428 28.3274 38.6123 28.9366 38.7037 29.4848C38.9473 31.1904 39.8915 32.5001 41.2621 33.1092C41.8408 33.3833 42.4194 33.5052 42.9677 33.5052Z" fill="#231F20"/>
<path d="M55.394 42.7642C55.394 42.7642 52.1351 43.1906 50.0031 40.9368C47.8711 38.683 48.1148 36.9164 48.1148 36.9164C48.1148 36.9164 52.0438 38.8657 55.3636 38.3479L55.394 42.7642Z" fill="#231F20"/>
<path d="M54.7546 43.0079C54.9678 43.0079 55.2115 43.0079 55.4247 42.9774C55.5465 42.9774 55.6074 42.8861 55.6074 42.7642L55.577 38.3784C55.577 38.3175 55.5465 38.2566 55.5161 38.2261C55.4551 38.1957 55.3942 38.1652 55.3333 38.1652C52.1048 38.683 48.2672 36.7642 48.2063 36.7642C48.1454 36.7337 48.0845 36.7337 48.0236 36.7642C47.9627 36.7946 47.9322 36.8555 47.9018 36.9165C47.9018 36.9774 47.6581 38.8353 49.851 41.1196C51.4652 42.7642 53.6582 43.0079 54.7546 43.0079ZM55.181 42.5815C54.4805 42.612 51.9221 42.6424 50.1556 40.815C48.6327 39.2312 48.3586 37.8606 48.3282 37.2819C49.3028 37.7083 52.3485 38.9876 55.1506 38.6221L55.181 42.5815Z" fill="#231F20"/>
<path d="M53.5362 26.7742C53.5362 26.7742 55.9423 30.8859 55.2418 31.5255C54.5412 32.1651 52.8356 31.6169 52.8356 31.6169" fill="white"/>
<path d="M54.2364 32.0433C54.6628 32.0737 55.0892 31.9519 55.4242 31.6778C56.1552 30.9773 54.3278 27.6574 53.7491 26.6828C53.6882 26.5914 53.5663 26.561 53.4445 26.6219C53.3227 26.6828 53.3227 26.8046 53.3836 26.9265C54.4801 28.8453 55.4547 31.0991 55.1501 31.4037C54.6628 31.8605 53.414 31.5864 52.9572 31.4341C52.8354 31.4037 52.7135 31.4341 52.6831 31.556C52.6526 31.6778 52.6831 31.7996 52.8049 31.8301C52.8049 31.8301 52.8049 31.8301 52.8354 31.8301C53.2618 31.9519 53.7491 32.0433 54.2364 32.0433Z" fill="#231F20"/>
<path d="M49.1124 26.8276C49.1062 26.323 49.3874 25.9104 49.7406 25.906C50.0939 25.9016 50.3853 26.3071 50.3915 26.8117C50.3978 27.3163 50.1165 27.7289 49.7633 27.7333C49.4101 27.7376 49.1187 27.3321 49.1124 26.8276Z" fill="#231F20"/>
<path d="M56.1542 27.0717C56.1453 26.5671 56.4244 26.1531 56.7775 26.1469C57.1307 26.1406 57.4242 26.5446 57.4331 27.0491C57.442 27.5536 57.1629 27.9677 56.8097 27.9739C56.4566 27.9801 56.1631 27.5762 56.1542 27.0717Z" fill="#231F20"/>
<path d="M50.6731 32.6829C51.7391 33.5661 53.8711 33.8707 56.7645 33.5357C56.7645 33.5357 56.8255 37.3733 54.0539 37.1905C51.2822 37.0078 50.6731 32.6829 50.6731 32.6829Z" fill="#231F20"/>
<path d="M54.2673 37.4037C54.8764 37.4342 55.4551 37.1905 55.8815 36.7946C57.0084 35.7286 56.9779 33.627 56.9779 33.5356C56.9779 33.4747 56.9475 33.4138 56.917 33.3834C56.8866 33.3529 56.8257 33.3224 56.7647 33.3224C53.9627 33.6575 51.8611 33.3529 50.8256 32.5306C50.7342 32.4696 50.6124 32.4696 50.521 32.561C50.4906 32.5915 50.4601 32.6524 50.4906 32.7133C50.521 32.896 51.1606 37.1905 54.0845 37.4037H54.2673ZM56.5515 33.7488C56.5211 34.2971 56.3688 35.6981 55.5769 36.4595C55.181 36.825 54.6327 37.0078 54.0845 36.9468C52.0439 36.7946 51.252 34.2362 50.9779 33.1092C52.1657 33.8098 54.0541 34.023 56.5515 33.7488Z" fill="#231F20"/>
<path d="M51.3544 25.0138C51.4343 24.9695 51.458 24.8867 51.4551 24.8186C51.4227 24.6973 51.3104 24.6203 51.2157 24.638L47.8428 25.1495C47.7067 25.1553 47.6297 25.2676 47.6621 25.3889C47.6679 25.525 47.7802 25.602 47.9015 25.5696C47.9015 25.5696 47.9015 25.5696 47.9282 25.5549L51.3011 25.0433C51.3277 25.0286 51.3277 25.0286 51.3544 25.0138Z" fill="#231F20"/>
<path d="M55.7088 25.7338C55.739 25.737 55.739 25.737 55.7693 25.7402L57.7987 25.3716C57.923 25.354 57.9964 25.2392 57.9485 25.1117C57.9278 25.0177 57.813 24.9443 57.7189 24.9651L55.6896 25.3337C55.5652 25.3512 55.4919 25.466 55.5095 25.5904C55.5637 25.6573 55.6179 25.7243 55.7088 25.7338Z" fill="#231F20"/>
<path d="M37.1199 21.9924C37.2418 21.7487 59.5973 20.7437 59.5973 20.7437C59.5973 20.7437 60.2065 15.2309 56.978 11.7588C53.7496 8.28666 44.4906 9.47449 40.4398 12.6725C36.389 15.8705 37.1199 21.9924 37.1199 21.9924Z" fill="white"/>
<path d="M37.1199 22.2055C37.1503 22.2055 37.1808 22.2056 37.2112 22.1751C38.0031 21.9923 50.9779 21.3527 59.5973 20.9568C59.6886 20.9568 59.78 20.8654 59.8105 20.7741C59.8409 20.5304 60.3892 15.109 57.1302 11.6369C55.6074 9.99221 52.6226 9.23078 48.9982 9.53535C45.6479 9.80947 42.2976 10.9668 40.3179 12.5202C36.2366 15.7486 36.9067 21.9314 36.9067 21.9923C36.9067 22.0837 36.998 22.1751 37.0894 22.1751L37.1199 22.2055ZM59.4145 20.5304C42.6021 21.2918 38.3991 21.5659 37.3331 21.7487C37.2721 20.6827 37.0894 15.5963 40.592 12.8552C44.6428 9.62672 53.719 8.62164 56.8257 11.911C59.6277 14.8958 59.4754 19.5558 59.4145 20.5304Z" fill="#231F20"/>
<path d="M59.5971 20.7437C59.5971 20.7437 66.2368 21.7487 66.1759 23.8807C66.1149 26.0127 49.9726 26.9265 42.9675 21.566L59.5971 20.7437Z" fill="white"/>
<path d="M58.5612 25.7691C61.6983 25.7691 64.3481 25.3732 65.5664 24.7945C66.1146 24.5203 66.3887 24.2158 66.3887 23.8807C66.4496 21.6269 60.3277 20.6218 59.6272 20.5305H59.5968L42.9671 21.3528C42.8453 21.3528 42.7539 21.4746 42.7539 21.566C42.7539 21.6269 42.7844 21.6878 42.8453 21.7183C46.7438 24.7031 53.353 25.7691 58.5612 25.7691ZM59.5968 20.9569C61.3937 21.231 66.0232 22.297 65.9623 23.8807C65.9623 24.033 65.7491 24.2462 65.3836 24.429C62.277 25.9214 49.8809 26.0737 43.6067 21.7487L59.5968 20.9569Z" fill="#231F20"/>
<path d="M49.8207 68.0437C50.2167 68.0437 50.6126 67.9218 50.9476 67.7086C54.6025 65.3634 55.6685 51.1399 55.638 46.2363C55.638 46.1145 55.5467 46.0231 55.4248 46.0231C55.303 46.0231 55.2116 46.1145 55.2116 46.2363C55.2421 52.3582 53.902 65.3025 50.704 67.3431C50.2167 67.6782 49.5466 67.7086 49.0288 67.4345C44.2775 65.2111 42.4196 44.3175 42.3892 44.1043C42.3892 43.9825 42.2673 43.8911 42.1455 43.9216C42.0237 43.9216 41.9323 44.0434 41.9628 44.1652C42.0237 45.0485 43.8511 65.5157 48.8156 67.8305C49.1507 67.9523 49.4857 68.0437 49.8207 68.0437Z" fill="#231F20"/>
<path d="M51.6475 75.3838L53.1704 74.927C53.1704 74.927 53.5968 72.064 53.3226 70.0538C53.0485 68.0436 52.1348 67.0386 51.678 66.7035C51.2211 66.3685 48.9673 66.8558 48.9673 66.8558C48.9673 66.8558 50.6729 69.1706 50.8252 70.8153C50.9774 72.4599 51.6475 75.3838 51.6475 75.3838Z" fill="white"/>
<path d="M51.6478 75.5971C51.6783 75.5971 51.6783 75.5971 51.7087 75.5971L53.2316 75.1402C53.323 75.1097 53.3839 75.0488 53.3839 74.9574C53.4143 74.8356 53.8103 72.0336 53.5362 70.0234C53.2316 67.7696 52.1351 66.7645 51.8001 66.5208C51.3128 66.1553 49.4549 66.5208 48.9067 66.6426C48.8458 66.6426 48.7848 66.7036 48.7544 66.7949C48.7239 66.8558 48.7239 66.9472 48.7848 67.0081C48.7848 67.0386 50.46 69.2924 50.6123 70.8762C50.7646 72.5209 51.4042 75.3839 51.4346 75.4752C51.4346 75.5361 51.4955 75.5971 51.526 75.6275C51.5564 75.5971 51.6174 75.5971 51.6478 75.5971ZM52.9575 74.7443L51.8001 75.1097C51.6478 74.3788 51.1605 72.1249 51.0387 70.7848C50.9168 69.4447 49.7899 67.6782 49.3331 66.9777C50.3077 66.7949 51.3432 66.7035 51.526 66.8558C51.7087 67.0081 52.8052 67.9218 53.0793 70.0538C53.323 71.7594 53.0488 74.1351 52.9575 74.7443Z" fill="#231F20"/>
<path d="M47.3536 68.4396C47.5059 67.5564 48.6633 66.003 50.4603 67.3432C52.2573 68.6833 51.6481 75.3839 51.6481 75.3839L50.4603 75.0488L50.2775 71.7594C50.2775 71.7594 46.714 71.7899 47.3536 68.4396Z" fill="white"/>
<path d="M51.6481 75.5971C51.6786 75.5971 51.7395 75.597 51.77 75.5666C51.8309 75.5361 51.8613 75.4752 51.8613 75.4143C51.8918 75.1402 52.4705 68.5614 50.5821 67.1909C49.638 66.4903 48.907 66.5817 48.4501 66.7645C47.7496 67.069 47.2623 67.7086 47.11 68.4396C46.9273 69.4752 47.0796 70.2975 47.5973 70.9371C48.3283 71.8204 49.5466 71.9726 50.0339 72.0031L50.2166 75.0793C50.2166 75.1706 50.2776 75.262 50.3689 75.262L51.5568 75.5971H51.6481ZM49.1202 67.0386C49.577 67.069 50.0034 67.2213 50.3385 67.5259C51.6786 68.5005 51.6177 73.0996 51.4654 75.1097L50.704 74.8661L50.5212 71.7594C50.5212 71.6376 50.4298 71.5462 50.308 71.5462C50.308 71.5462 48.7852 71.5462 47.9933 70.6325C47.5669 70.1148 47.4146 69.4142 47.5973 68.5005C47.7192 67.9218 48.1151 67.4041 48.6633 67.1604C48.7852 67.069 48.9374 67.0386 49.1202 67.0386Z" fill="#231F20"/>
<path d="M53.3232 70.0538L52.2572 70.1148L52.3181 71.3026L53.4146 71.2417L53.3232 70.0538Z" fill="#231F20"/>
<path d="M52.3178 71.5158L53.4142 71.4549C53.4752 71.4549 53.5361 71.4244 53.5665 71.394C53.597 71.3635 53.6274 71.3026 53.6274 71.2417L53.5361 70.0234C53.5361 69.9016 53.4142 69.8102 53.3229 69.8102L52.2264 69.8711C52.1046 69.8711 52.0132 69.9929 52.0132 70.1148L52.0741 71.333C52.1046 71.4549 52.196 71.5462 52.3178 71.5158ZM53.1706 71.0285L52.5005 71.0589L52.4701 70.2975L53.1097 70.267L53.1706 71.0285Z" fill="#231F20"/>
<path d="M83.1709 36.5814C82.3181 39.2921 77.1099 52.3277 75.6175 56.2263C74.1251 60.1552 72.785 65.8812 76.3485 69.1401C77.9323 70.6021 80.4602 71.1198 82.3486 70.0234C83.1405 69.5056 83.841 68.8355 84.3587 68.0437C89.1405 61.3735 90.0542 38.3479 90.9375 34.5712C90.9375 34.5712 85.242 29.7894 84.3283 29.698C83.4146 29.6067 83.1709 36.5509 83.1709 36.5814Z" fill="white"/>
<path d="M80.0947 70.8457C80.917 70.8457 81.7394 70.6325 82.4704 70.2366C83.2927 69.7188 83.9932 69.0183 84.5414 68.196C88.1049 63.201 89.5364 49.1907 90.3892 40.8149C90.6938 37.9215 90.9374 35.6372 91.1506 34.6626C91.1811 34.5712 91.1506 34.5103 91.0897 34.4494C90.1151 33.6575 85.3029 29.6067 84.3587 29.5458C84.2369 29.5458 84.1455 29.5762 84.0541 29.6676C83.2622 30.3681 83.0186 35.4545 82.9881 36.5509C82.4094 38.4088 79.851 44.8657 77.8409 50.0739C76.8358 52.6628 75.9525 54.8862 75.4652 56.1654C73.1809 62.1959 73.455 66.734 76.2571 69.3229C77.2926 70.2671 78.6632 70.8153 80.0947 70.8457ZM90.7242 34.6626C90.511 35.7286 90.2674 37.952 89.9933 40.754C89.1405 49.0993 87.709 63.0487 84.2064 67.9218C83.6886 68.6833 83.0186 69.3533 82.2571 69.8407C80.5515 70.8457 78.1454 70.4803 76.5007 68.9878C73.1504 65.8812 74.2774 60.3685 75.8307 56.2872C76.318 55.008 77.2013 52.7846 78.2063 50.1958C80.247 44.9571 82.8054 38.4697 83.3841 36.6118C83.3841 36.5814 83.3841 36.5814 83.3841 36.5509C83.5059 33.5052 83.9018 30.1245 84.3282 29.9113C84.9069 30.0026 88.5009 32.8656 90.7242 34.6626Z" fill="#231F20"/>
<path d="M76.3184 29.4239C76.3184 29.4239 77.1712 31.5559 78.5113 31.9823C79.8514 32.4087 82.8667 31.0686 83.2017 31.2818C83.5367 31.495 91.0292 37.6474 91.7602 37.8606C92.4912 38.0738 93.9836 36.3072 94.6841 34.1448C94.6841 34.1448 87.3744 28.632 86.887 28.0838C86.3997 27.5356 85.9733 24.2157 85.3033 22.9974L76.3184 29.4239Z" fill="white"/>
<path d="M91.8517 38.0738C92.7654 38.0738 94.1969 36.2768 94.867 34.2057C94.8974 34.1143 94.867 34.0229 94.806 33.962C91.8822 31.7691 87.3745 28.3274 87.0699 27.9315C86.8872 27.6878 86.6435 26.7437 86.4303 25.83C86.1562 24.764 85.8821 23.5457 85.5166 22.8756C85.4861 22.8147 85.4252 22.7842 85.3643 22.7842C85.3034 22.7842 85.2425 22.7842 85.1816 22.8147L76.2272 29.2716C76.1358 29.3325 76.1053 29.4239 76.1662 29.5153C76.1967 29.6067 77.0495 31.7387 78.481 32.1955C79.3642 32.4696 80.8871 32.0432 81.9836 31.7387C82.349 31.6168 82.745 31.5255 83.1409 31.4645C83.2018 31.5255 83.9937 32.1346 84.9075 32.8656C88.2273 35.5153 91.2121 37.9215 91.7299 38.0738C91.7299 38.0738 91.7908 38.0738 91.8517 38.0738ZM94.4101 34.2057C93.7096 36.2768 92.339 37.7692 91.7908 37.6169C91.3339 37.4951 87.1308 34.1143 85.1207 32.5001C83.9633 31.5864 83.415 31.1295 83.2932 31.0686C83.1105 30.9468 82.7145 31.0381 81.8313 31.3123C80.7653 31.6168 79.3338 32.0128 78.5724 31.7691C77.5368 31.4341 76.8058 29.9721 76.5926 29.5153L85.212 23.302C85.5471 24.1548 85.7907 25.0381 85.9735 25.9213C86.278 27.1396 86.4608 27.901 86.7044 28.1752C87.1308 28.7539 93.2223 33.3224 94.4101 34.2057Z" fill="#231F20"/>
<path d="M84.7853 24.9163C84.6939 25.4645 84.7853 26.0432 84.9985 26.5305C85.3944 27.3224 87.2218 28.4189 87.2218 28.4189L88.6533 25.83L86.1863 23.8503L84.7853 24.9163Z" fill="#231F20"/>
<path d="M87.252 28.632C87.2825 28.632 87.2825 28.632 87.3129 28.632C87.3739 28.6016 87.4043 28.5711 87.4348 28.5407L88.8663 25.9518C88.9272 25.8604 88.8967 25.7386 88.8053 25.6777L86.3079 23.698C86.2165 23.6371 86.1251 23.6371 86.0337 23.698L84.6327 24.7335C84.6022 24.764 84.5718 24.8249 84.5413 24.8553C84.45 25.4645 84.5413 26.0736 84.785 26.6219C85.2114 27.4442 87.0084 28.5407 87.0997 28.6016C87.1607 28.632 87.1911 28.632 87.252 28.632ZM88.4094 25.8909L87.1911 28.1143C86.6124 27.7488 85.4855 26.9569 85.2419 26.4391C85.0286 26.0127 84.9677 25.5254 85.0287 25.0381L86.2165 24.1548L88.4094 25.8909Z" fill="#231F20"/>
<path d="M92.6738 32.6524C92.6738 32.6524 93.4657 30.5204 92.2474 30.3072C92.2474 30.3072 92.0951 28.7539 90.6027 29.3325C90.6027 29.3325 90.2981 27.6879 89.0189 27.962C87.7397 28.2361 86.5823 31.2209 86.7346 31.9823C86.8869 32.7437 87.892 32.3478 88.4098 31.6473C88.4098 31.6473 87.7092 32.8047 88.1357 33.1397C88.7448 33.627 89.4453 32.8351 89.9935 32.2564C89.9935 32.2564 89.1407 33.627 90.2981 33.8098C91.1814 33.962 92.0951 32.1651 92.0951 32.1651L92.6738 32.6524Z" fill="white"/>
<path d="M90.3893 34.0534C91.1812 34.0534 91.8817 33.0179 92.1558 32.5305L92.5518 32.8351C92.6127 32.8656 92.6736 32.896 92.7345 32.8656C92.7954 32.8351 92.8564 32.8047 92.8868 32.7437C92.9477 32.5915 93.4046 31.3122 92.9782 30.5813C92.8564 30.3681 92.6736 30.2158 92.4604 30.1549C92.3995 29.7589 92.1863 29.4239 91.8513 29.1802C91.5162 28.9975 91.1507 28.967 90.7853 29.0889C90.6634 28.632 90.3893 28.2665 90.0238 27.962C89.7193 27.7488 89.3538 27.6878 88.9883 27.7792C87.5873 28.0838 86.369 31.1904 86.5213 32.0432C86.5517 32.3173 86.7345 32.561 87.0086 32.6219C87.2827 32.6828 87.5873 32.6219 87.8309 32.4392C87.7395 32.7742 87.7395 33.1397 87.9832 33.3224C88.501 33.7184 89.0187 33.4747 89.4756 33.0788C89.4451 33.2311 89.4756 33.4138 89.5365 33.5661C89.6583 33.8402 89.9325 34.0229 90.237 34.0534H90.3893ZM92.0949 31.9823C92.0949 31.9823 92.0645 31.9823 92.034 31.9823C91.9731 31.9823 91.9122 32.0432 91.8817 32.1041C91.6685 32.5305 90.8766 33.7184 90.2979 33.627C89.9934 33.5661 89.9325 33.4443 89.902 33.3833C89.7802 33.0788 90.0238 32.561 90.1457 32.4087C90.2066 32.3173 90.1761 32.1651 90.0847 32.1041C89.9934 32.0432 89.8715 32.0737 89.8106 32.1346L89.6888 32.2564C89.0797 32.896 88.5923 33.292 88.2269 32.9874C88.0746 32.8656 88.2878 32.226 88.5619 31.7691C88.6228 31.6777 88.5923 31.5255 88.501 31.4645C88.4096 31.4036 88.2878 31.4341 88.2269 31.5255C87.8614 31.9823 87.3436 32.2564 87.0999 32.1955C87.039 32.1651 86.9781 32.1346 86.9172 31.9519C86.7954 31.2818 87.8918 28.4188 89.0492 28.1752C89.2929 28.1142 89.5365 28.1447 89.7497 28.297C90.0847 28.5711 90.2979 28.967 90.3893 29.363C90.4198 29.4848 90.5111 29.5457 90.633 29.5457H90.6634C90.9375 29.3934 91.303 29.3934 91.5771 29.5153C91.8208 29.7285 91.9731 30.0026 92.0036 30.3072C92.0036 30.3985 92.0949 30.4899 92.1863 30.4899C92.3386 30.5204 92.4909 30.6117 92.5822 30.7336C92.7954 31.099 92.6736 31.83 92.5518 32.2564L92.2168 31.9823C92.1863 32.0128 92.1558 32.0128 92.0949 31.9823Z" fill="#231F20"/>
<path d="M87.3741 25.8909C87.3741 25.8909 86.704 24.6117 85.9121 25.6777C85.1202 26.7437 84.1152 28.7539 85.3639 29.028C86.6127 29.3021 87.6482 26.9874 87.3741 25.8909Z" fill="white"/>
<path d="M85.5469 29.2717C85.9733 29.2412 86.3693 29.0585 86.6434 28.7235C87.3439 27.9925 87.7703 26.6524 87.5876 25.83C87.5876 25.7996 87.5876 25.7996 87.5571 25.7996C87.5266 25.7387 87.1916 25.0991 86.6129 25.0381C86.2474 25.0381 85.9124 25.2209 85.7297 25.5255C85.2119 26.226 84.2677 27.7793 84.6028 28.6321C84.7246 28.9367 84.9682 29.1499 85.3033 29.2108C85.3946 29.2412 85.486 29.2717 85.5469 29.2717ZM87.1612 25.9823C87.3134 26.6524 86.9175 27.8402 86.3388 28.4494C86.1256 28.7235 85.7601 28.8758 85.3946 28.8453C85.2119 28.8148 85.0596 28.693 85.0292 28.5407C84.816 27.962 85.4251 26.7133 86.0952 25.83C86.217 25.6473 86.3997 25.5255 86.6129 25.495C86.8566 25.495 87.1002 25.83 87.1612 25.9823Z" fill="#231F20"/>
<path d="M83.1404 37.2514C83.1404 37.2514 82.5008 33.2615 82.4399 32.5306C82.379 31.3427 82.7445 29.4544 83.8105 29.2107C84.8765 28.9671 87.313 28.7843 86.8562 29.8503C86.4602 30.7945 84.3282 30.8859 84.3282 30.8859C84.3282 30.8859 85.7293 32.4087 85.4247 33.8707" fill="white"/>
<path d="M83.1407 37.4646H83.1712C83.293 37.4342 83.3539 37.3428 83.3539 37.221C83.3539 37.1905 82.7143 33.2311 82.6534 32.5306C82.5925 31.3732 82.958 29.6371 83.8413 29.4544C84.9073 29.2107 86.3692 29.1803 86.6433 29.5153C86.6738 29.5458 86.7042 29.6067 86.6433 29.759C86.3388 30.429 84.8464 30.6422 84.2981 30.6727C84.2067 30.6727 84.1458 30.7336 84.1154 30.7945C84.0849 30.8859 84.0849 30.9468 84.1458 31.0077C84.1458 31.0077 85.4555 32.5001 85.1814 33.8098C85.1509 33.9316 85.2423 34.023 85.3337 34.0534C85.4555 34.0839 85.5469 33.9925 85.5773 33.8707C85.821 32.7133 85.09 31.5559 84.6941 31.0077C85.3641 30.9468 86.6433 30.6727 87.0088 29.8808C87.1306 29.6676 87.1002 29.3935 86.9479 29.1803C86.3997 28.5102 84.2677 28.8452 83.7194 28.9671C82.4707 29.2412 82.1357 31.2818 82.1966 32.5001C82.227 33.2311 82.8666 37.0687 82.8971 37.221C82.958 37.4037 83.0494 37.4646 83.1407 37.4646Z" fill="#231F20"/>
<path d="M99.3135 22.9365C99.3135 22.9365 90.6027 21.6878 86.9479 23.5761C86.0341 24.0635 85.1509 24.6421 84.2981 25.2513C82.2879 26.6828 80.3996 28.297 78.9376 29.1803C76.0442 30.9163 73.303 31.1904 71.5974 28.1143C70.1355 25.4645 71.1101 24.3071 73.3335 22.1142C74.4299 21.0482 76.7447 19.2817 78.7549 17.302C79.9732 16.0837 81.1001 14.8045 81.7701 13.5557C83.5366 10.2359 83.3234 4.9668 83.3234 4.9668L99.3135 22.9365Z" fill="white"/>
<path d="M75.1302 30.7032C76.2875 30.7032 77.5972 30.2768 79.0591 29.3631C80.0947 28.693 81.0998 27.962 82.0439 27.2006C82.8054 26.6219 83.6277 25.9823 84.4501 25.4036C85.2724 24.7945 86.1557 24.2463 87.0694 23.7589C90.6329 21.9011 99.2218 23.1193 99.3132 23.1193C99.4046 23.1193 99.4959 23.0889 99.5264 22.9975C99.5568 22.9061 99.5568 22.8148 99.4959 22.7539L83.5059 4.87548C83.445 4.81456 83.3536 4.7841 83.2622 4.81456C83.1709 4.84502 83.1404 4.93639 83.1404 5.02776C83.1404 5.08868 83.3232 10.2664 81.6175 13.4949C81.0389 14.5913 80.0642 15.8096 78.6327 17.1802C77.4754 18.3071 76.2266 19.3731 75.1606 20.2868C74.3687 20.9569 73.6987 21.5356 73.2114 21.9924C70.9575 24.1853 69.8915 25.4645 71.4144 28.2362C72.1149 29.4849 73.0286 30.2768 74.1251 30.5814C74.4601 30.6727 74.8256 30.7032 75.1302 30.7032ZM93.4045 22.3275C91.0288 22.3275 88.4704 22.5711 86.8562 23.4239C85.912 23.9112 85.0288 24.4899 84.176 25.0991C83.3536 25.6777 82.5313 26.3174 81.7698 26.896C80.8257 27.6575 79.851 28.358 78.8155 29.028C77.0185 30.1245 75.4652 30.5204 74.2164 30.1854C73.2418 29.9113 72.4195 29.2108 71.7799 28.0534C70.3788 25.5255 71.2926 24.4595 73.4855 22.297C73.9423 21.8401 74.6124 21.2615 75.4043 20.6219C76.5007 19.7081 77.7495 18.6421 78.9069 17.4848C80.3688 16.0533 81.3739 14.8045 81.9526 13.6776C83.3841 10.9669 83.5364 7.03794 83.5364 5.57599L98.765 22.6625C96.9984 22.4493 95.2015 22.3275 93.4045 22.3275Z" fill="#231F20"/>
<path d="M84.7852 24.9163C82.775 26.3478 80.3384 28.2361 78.9374 29.2108C75.7089 31.4037 73.7292 31.556 71.8408 28.5712C69.8916 25.5254 71.1099 24.3376 73.3637 22.1447C74.4602 21.0787 76.7749 19.3122 78.7851 17.3325C78.7851 17.3325 78.8155 19.4949 80.8257 22.2056C81.8004 23.5457 83.2014 24.4899 84.7852 24.9163Z" fill="#231F20"/>
<path d="M75.0693 31.0382C76.1353 31.0382 77.4145 30.5204 79.0897 29.3935C79.8511 28.8757 80.9171 28.0838 82.044 27.231C83.0186 26.5 84.0237 25.7386 84.9374 25.099C84.9984 25.0381 85.0288 24.9772 85.0288 24.8858C84.9984 24.7944 84.9374 24.7335 84.8765 24.7335C83.3232 24.3071 81.9831 23.363 81.0085 22.0838C79.0592 19.4644 78.9983 17.3629 78.9983 17.3324C78.9983 17.2411 78.9374 17.1801 78.8765 17.1497C78.7851 17.1192 78.6937 17.1192 78.6328 17.2106C77.4754 18.3375 76.2267 19.4035 75.1607 20.3172C74.3688 20.9873 73.6987 21.566 73.2114 22.0228C70.9576 24.2158 69.6175 25.5254 71.6581 28.7234C72.5109 30.0635 73.3942 30.7945 74.4297 31.0077C74.6429 31.0382 74.8561 31.0382 75.0693 31.0382ZM84.3283 25.0076C83.5059 25.6168 82.6227 26.2564 81.7699 26.896C80.643 27.7488 79.6074 28.5102 78.846 29.028C76.9577 30.3072 75.6175 30.7945 74.5515 30.5509C73.6378 30.3681 72.8459 29.6981 72.054 28.4493C70.1962 25.5559 71.2926 24.4594 73.516 22.3274C74.0033 21.8401 74.6734 21.2919 75.4653 20.6218C76.4703 19.769 77.5668 18.8248 78.6633 17.7893C78.7851 18.5812 79.181 20.2868 80.7039 22.3274C81.5567 23.5457 82.8663 24.4899 84.3283 25.0076Z" fill="#231F20"/>
<path d="M101.78 22.3274C99.7394 24.0026 95.5059 22.3274 91.4246 18.5812C89.3535 16.6624 87.5565 14.4695 86.0946 12.0634C83.1707 7.28159 82.3788 2.77392 84.4499 1.09878C86.9778 -0.972312 92.917 2.10387 97.7292 7.95165C102.541 13.7994 104.308 20.2259 101.78 22.3274Z" fill="#4A4A4A"/>
<path d="M86.4604 0.428687C85.7294 0.39823 84.9984 0.641889 84.4198 1.06829C82.3791 2.74344 83.171 7.28156 86.0644 12.0329C86.7954 13.2207 87.5873 14.3476 88.4706 15.4441C89.3843 16.5405 90.3589 17.5761 91.3945 18.5507C94.4097 21.3223 97.4859 22.967 99.7397 22.967C100.471 22.9975 101.171 22.7538 101.75 22.3274C104.278 20.2563 102.45 13.8299 97.6686 7.95162C93.9224 3.32212 89.4147 0.428687 86.4604 0.428687ZM86.4604 0.00228811C89.6279 0.00228811 94.2879 3.07846 98.0341 7.6775C100.379 10.5405 102.115 13.6776 102.907 16.4492C103.73 19.3426 103.425 21.5355 102.054 22.6624C101.415 23.1802 100.593 23.4239 99.7397 23.3934C97.3641 23.3934 94.227 21.7487 91.1203 18.8858C90.0543 17.9111 89.0797 16.8451 88.166 15.7487C87.2827 14.6522 86.4604 13.4948 85.699 12.307C82.5923 7.19019 81.9527 2.56069 84.1456 0.794175C84.8157 0.245945 85.6076 -0.0281691 86.4604 0.00228811Z" fill="#231F20"/>
<path d="M95.1104 14.3476L91.425 18.5507C89.3539 16.6319 87.557 14.439 86.095 12.0329L91.2727 9.16992L95.1104 14.3476Z" fill="white"/>
<path d="M91.9853 12.6933C90.9175 11.2655 90.5869 9.70781 91.2469 9.21418C91.907 8.72055 93.3077 9.47788 94.3756 10.9057C95.4434 12.3336 95.774 13.8913 95.114 14.3849C94.4539 14.8785 93.0532 14.1212 91.9853 12.6933Z" fill="#231F20"/>
<path d="M94.6231 14.7132C94.8363 14.7132 95.0495 14.6522 95.2322 14.5304C95.6281 14.2258 95.75 13.6776 95.5977 12.9162C95.4149 12.1243 95.0495 11.3933 94.5621 10.7537C93.4048 9.23086 91.9124 8.46943 91.1509 9.01766C90.755 9.32223 90.6332 9.87046 90.7854 10.6319C90.9682 11.4238 91.3337 12.1547 91.821 12.7944C92.7042 13.9822 93.8007 14.7132 94.6231 14.7132ZM94.1966 10.9974C94.6535 11.5761 94.9885 12.2766 95.1713 13.0075C95.2931 13.5558 95.2017 13.9822 94.9581 14.1649C94.4708 14.5304 93.1916 13.9517 92.1256 12.5202C91.6687 11.9415 91.3337 11.241 91.1509 10.5101C91.0291 9.96183 91.1205 9.53543 91.3641 9.35269C91.8514 9.01766 93.1611 9.59634 94.1966 10.9974Z" fill="#231F20"/>
<path d="M89.9932 32.5001C90.0542 32.5001 90.1455 32.4697 90.176 32.4087C90.4806 31.9519 90.8765 31.5255 91.3029 31.16C91.3943 31.0991 91.4247 30.9468 91.3638 30.8554C91.3029 30.7641 91.1506 30.7336 91.0592 30.7945C91.0592 30.7945 91.0592 30.7945 91.0288 30.7945C90.5719 31.1905 90.1455 31.6473 89.8105 32.1651C89.7496 32.2565 89.78 32.4087 89.8714 32.4697C89.9019 32.5001 89.9628 32.5306 89.9932 32.5001Z" fill="#231F20"/>
<path d="M88.4095 31.8606C88.5009 31.8606 88.5923 31.7996 88.6227 31.7083C88.8359 31.0991 89.2319 30.5509 89.7801 30.1854C89.8715 30.1245 89.9324 30.0027 89.8715 29.8808C89.8106 29.7895 89.6887 29.7286 89.5669 29.7895C89.5669 29.7895 89.5364 29.7895 89.5364 29.8199C88.8968 30.2463 88.44 30.8859 88.2268 31.5864C88.1963 31.7083 88.2572 31.8301 88.3791 31.8606H88.4095Z" fill="#231F20"/>
<path d="M92.0949 32.4087C92.1558 32.4087 92.2167 32.3783 92.2776 32.3174L92.6431 31.8301C92.704 31.7387 92.704 31.6169 92.6126 31.5255C92.5213 31.4646 92.369 31.4646 92.3081 31.5559L91.9426 32.0433C91.8817 32.1346 91.8817 32.2565 91.973 32.3478C92.0035 32.4087 92.0339 32.4087 92.0949 32.4087Z" fill="#231F20"/>
<path d="M74.6734 22.1142C74.7343 22.1142 74.7647 22.0838 74.7952 22.0533L77.7191 19.5863C77.8105 19.4949 77.8105 19.3731 77.7495 19.2817C77.6886 19.1903 77.5363 19.1903 77.445 19.2513L74.5211 21.7183C74.4297 21.7792 74.4297 21.9315 74.4906 22.0229C74.5515 22.0838 74.6124 22.1142 74.6734 22.1142Z" fill="white"/>
<path d="M75.0391 22.7538C75.1 22.7538 75.1305 22.7234 75.1609 22.6929L78.0848 20.2259C78.1762 20.1345 78.1762 20.0127 78.1153 19.9213C78.0543 19.8299 77.9021 19.8299 77.8107 19.8908L74.8868 22.3579C74.7954 22.4188 74.7954 22.5711 74.8563 22.6624C74.9173 22.7234 74.9782 22.7538 75.0391 22.7538Z" fill="white"/>
<path d="M75.4654 23.5153C75.5263 23.5153 75.5567 23.4848 75.5872 23.4544L78.5111 20.9873C78.6024 20.896 78.6024 20.7741 78.5415 20.6828C78.4806 20.5914 78.3283 20.5914 78.237 20.6523L75.3131 23.1193C75.2217 23.1803 75.2217 23.3325 75.2826 23.4239C75.3435 23.4848 75.4044 23.5153 75.4654 23.5153Z" fill="white"/>
<path d="M66.9372 87.1404C67.0895 87.1404 67.1504 87.0185 67.1504 86.8967L63.5869 48.6425C63.5564 48.5206 63.4651 48.4597 63.3432 48.4597C63.2519 48.4902 63.1605 48.5815 63.1605 48.6729L66.724 86.9272C66.7544 87.049 66.8458 87.1404 66.9372 87.1404Z" fill="#231F20"/>
<path d="M11.1701 101.364L0.235981 77.0894L33.7084 62.4091L44.6426 86.6834L11.1701 101.364Z" fill="white"/>
<path d="M11.1706 101.608C11.201 101.608 11.2315 101.608 11.262 101.577L44.704 86.8967C44.7649 86.8663 44.7953 86.8358 44.8258 86.7749C44.8562 86.714 44.8562 86.6531 44.8258 86.5921L33.8917 62.3177C33.8307 62.1959 33.7089 62.1655 33.5871 62.1959L0.145073 76.8763C0.0841599 76.9068 0.0537033 76.9372 0.0232468 76.9981C-0.00721359 77.059 -0.00721359 77.12 0.0232468 77.1809L10.9574 101.455C11.0183 101.547 11.0792 101.608 11.1706 101.608ZM44.3385 86.5921L11.2924 101.09L0.541023 77.2113L33.5871 62.7137L44.3385 86.5921Z" fill="#231F20"/>
<path d="M37.6987 79.1301L34.7443 72.5514C34.0743 71.059 34.8357 69.3229 36.4195 68.6224L37.2114 68.2569L42.6023 80.1657L41.8104 80.5312C40.1962 81.2317 38.3687 80.5921 37.6987 79.1301Z" fill="white"/>
<path d="M40.4398 81.0489C40.9271 81.0489 41.4144 80.9575 41.8713 80.7443L42.6632 80.3788C42.7241 80.3483 42.7546 80.3179 42.785 80.257C42.8155 80.1961 42.8155 80.1351 42.785 80.0742L37.4246 68.1655C37.3636 68.0436 37.2418 68.0132 37.12 68.0436L36.3281 68.4091C35.4753 68.7746 34.8357 69.4447 34.4702 70.2975C34.1656 71.0589 34.1961 71.8812 34.5311 72.6122L37.4855 79.191C38.0642 80.3483 39.1911 81.0793 40.4398 81.0489ZM42.3282 80.0742L41.719 80.3483C40.2266 80.9879 38.521 80.4093 37.9119 79.0691L34.9575 72.4904C34.6834 71.8508 34.6529 71.1503 34.9271 70.5107C35.2316 69.7797 35.8103 69.1706 36.5413 68.866L37.1504 68.5919L42.3282 80.0742Z" fill="#231F20"/>
<path d="M12.8454 97.9222C12.8758 97.9222 12.9063 97.9222 12.9368 97.8918L38.1249 86.9576C38.1858 86.9272 38.2162 86.8967 38.2467 86.8358C38.2771 86.7749 38.2771 86.714 38.2467 86.6835L29.5664 67.4346C29.5055 67.3432 29.3836 67.2823 29.2923 67.3127L4.56103 78.2773C4.46965 78.3382 4.40874 78.4601 4.4392 78.5514L12.6626 97.7699C12.6931 97.8308 12.7236 97.8613 12.7845 97.8918C12.8149 97.8918 12.8149 97.9222 12.8454 97.9222ZM37.7594 86.6531L12.9672 97.4349L4.92652 78.6124L29.2618 67.8L37.7594 86.6531Z" fill="#D1D3D4"/>
<path d="M34.8049 88.3891C34.8353 88.3891 34.8658 88.3891 34.8962 88.3586C35.0181 88.3282 35.0485 88.1759 35.0181 88.0845L26.5814 68.7442C26.5205 68.6528 26.3987 68.5919 26.3073 68.6224C26.1855 68.6833 26.155 68.8051 26.1855 68.8965L34.6221 88.2368C34.6526 88.3282 34.7135 88.3891 34.8049 88.3891Z" fill="#D1D3D4"/>
<path d="M11.2312 94.2673C11.2616 94.2673 11.2921 94.2673 11.3225 94.2369L36.4497 83.1504C36.5716 83.12 36.6325 82.9981 36.5716 82.8763C36.5411 82.7545 36.4193 82.6936 36.2974 82.7545H36.267L11.1398 93.8409C11.0484 93.9018 10.9875 94.0236 11.018 94.115C11.0789 94.2368 11.1398 94.2673 11.2312 94.2673Z" fill="#D1D3D4"/>
<path d="M13.7287 83.8814C14.9775 88.2672 18.2668 96.8562 19.8811 97.5567C21.4953 98.2572 26.7644 96.1861 27.8913 95.2419C29.0182 94.2978 23.475 90.3992 23.475 90.3992C23.475 90.3992 26.0943 90.3992 26.5207 89.0591C26.9471 87.719 21.7999 87.5058 21.7999 87.5058C21.0689 87.0794 21.2821 82.8458 21.2516 82.1149C21.008 78.5209 20.8557 74.8965 20.7034 71.3026C20.5207 67.1604 20.3988 62.7746 19.6679 58.6628C19.211 56.2263 18.3887 53.6374 16.3785 52.2059C15.8303 51.7795 15.1907 51.5359 14.5206 51.4749C12.2363 51.3227 10.1652 53.3328 9.31242 55.2821C8.49007 57.14 8.36824 59.2415 8.3987 61.3126C8.52053 69.3838 11.5662 76.2671 13.7287 83.8814Z" fill="white"/>
<path d="M20.7642 97.8917C23.018 97.8917 27.0688 96.2166 28.0434 95.3638C28.1957 95.2419 28.2871 95.0287 28.2871 94.8155C28.2262 93.6582 25.3328 91.4043 24.1145 90.5211C24.9673 90.4297 26.3988 90.1251 26.7642 89.0591C26.8252 88.8459 26.7947 88.6327 26.6729 88.45C26.0028 87.4754 22.5612 87.2926 21.8911 87.2621C21.4647 86.8662 21.4647 83.9119 21.4647 82.9372C21.4647 82.5413 21.4647 82.2367 21.4647 82.0844C21.221 78.4905 21.0687 74.927 20.9165 71.2721L20.8555 69.8102C20.7033 66.0944 20.551 62.2568 19.8809 58.6019C19.5154 56.5308 18.754 53.6069 16.5002 51.9927C15.9215 51.5663 15.2514 51.2922 14.5205 51.2008C12.1752 51.0485 10.0128 53.0587 9.09907 55.1298C8.21581 57.1095 8.12444 59.3329 8.1549 61.2517C8.24627 67.3736 9.98233 72.7036 11.7793 78.3382C12.358 80.1352 12.9671 82.0235 13.5154 83.9119C14.5509 87.5363 17.9317 96.9475 19.7895 97.7394C20.1246 97.8613 20.4596 97.9222 20.7642 97.8917ZM23.5053 90.1556C23.414 90.1556 23.3226 90.2165 23.2921 90.3079C23.2617 90.3992 23.2921 90.4906 23.3835 90.5515C25.0891 91.7394 27.8302 93.9932 27.8607 94.8764C27.8607 94.9374 27.8302 95.0287 27.7998 95.0592C26.612 96.0643 21.4647 97.9831 20.0027 97.3435C18.6017 96.7343 15.3733 88.7241 13.9722 83.8205C13.424 81.9321 12.8148 80.0438 12.2362 78.2468C10.4392 72.6427 8.73359 67.3431 8.64222 61.2822C8.61176 59.4243 8.70313 57.2618 9.52547 55.343C10.3478 53.4242 12.3884 51.5359 14.5205 51.6577C15.1601 51.7186 15.7692 51.9623 16.287 52.3582C18.419 53.8811 19.1499 56.7136 19.485 58.6933C20.1246 62.2872 20.3073 66.1249 20.4596 69.8406L20.5205 71.3026C20.6728 74.9574 20.8555 78.5209 21.0687 82.1149C21.0687 82.2672 21.0687 82.5413 21.0687 82.9372C21.0687 85.6784 21.1601 87.3231 21.7084 87.6581C21.7388 87.6886 21.7693 87.6886 21.7997 87.6886C23.3226 87.7495 25.881 88.0845 26.3074 88.7241C26.3683 88.785 26.3683 88.8764 26.3378 88.9678C25.9724 90.1556 23.5662 90.1556 23.5053 90.1556Z" fill="#231F20"/>
<path d="M39.7085 37.9824C23.018 42.3987 13.363 49.4952 10.9569 52.0841L20.7946 64.7238L35.81 57.9319L39.7085 37.9824Z" fill="#FFB300"/>
<path d="M20.7949 64.9066C20.8253 64.9066 20.8558 64.9066 20.8863 64.8761L33.2214 58.7847C33.3128 58.7238 33.3433 58.6324 33.3128 58.5106C33.2519 58.4192 33.1605 58.3887 33.0387 58.4192L20.7035 64.5106C20.6121 64.5716 20.5817 64.6629 20.6121 64.7848C20.6731 64.8457 20.734 64.9066 20.7949 64.9066Z" fill="#231F20"/>
</svg>
