<svg width="534" height="514" viewBox="0 0 534 514" fill="none" xmlns="http://www.w3.org/2000/svg">
<path d="M448.488 170.797C495.652 170.797 533.887 132.563 533.887 85.3987C533.887 38.2343 495.652 0 448.488 0C401.324 0 363.089 38.2343 363.089 85.3987C363.089 132.563 401.324 170.797 448.488 170.797Z" fill="white"/>
<path d="M453.451 37.0242C463.209 37.591 470.853 40.6546 476.413 46.0619C481.836 51.4692 484.317 58.1326 483.873 65.807C483.567 71.1377 482.51 75.6412 480.227 79.1644C477.93 82.6876 476.765 84.8321 473.227 87.2371C469.688 89.642 468.877 90.2394 464.71 92.2155C462.688 93.2724 461.355 93.8545 460.804 94.2068C455.274 97.1479 452.241 99.9665 451.95 105.052C451.766 108.3 450.663 109.157 447.538 108.974L442.33 108.667C439.205 108.483 438.225 107.518 438.409 104.256C439.052 93.1958 443.923 88.1255 452.165 83.2697C452.042 83.2697 457.434 80.3133 457.694 80.1907C458.23 79.8384 461.754 77.6939 462.458 76.8207C463.163 75.9476 465.507 73.7418 466.135 72.0721C466.747 70.5403 467.544 68.1047 467.697 65.5006C468.157 57.5658 462.611 51.8981 452.21 51.2854C442.192 50.7033 436.632 54.4256 432.511 62.4064C430.888 65.5772 429.815 66.0368 426.767 64.8113L420.655 62.2379C417.714 61.1503 416.917 59.1436 418.25 56.4782C424.684 42.4928 436.417 35.9979 453.451 37.0089V37.0242ZM445.179 116.02C451.429 116.387 453.375 118.593 453.022 124.828L452.961 126.007C452.593 132.38 450.388 134.202 444.153 133.85L443.111 133.789C436.862 133.421 434.901 131.353 435.269 124.981L435.33 123.801C435.698 117.552 437.903 115.591 444.138 115.959L445.179 116.02Z" fill="#FFB200"/>
<path d="M386.128 103.489L332.576 145.063L400.144 130.694L386.128 103.489Z" fill="white"/>
<path d="M337.765 442.311C334.27 466.212 330.55 490.112 330.55 490.112H298.532L294.361 442.311L292.783 424.499L257.27 416.72L272.264 369.596C272.264 369.596 342.725 387.746 343.402 394.962C343.853 398.344 340.922 420.328 337.765 442.311Z" fill="white"/>
<path d="M330.55 490.901H298.532C298.081 490.901 297.743 490.563 297.743 490.225L292.106 425.175L257.158 417.509C256.932 417.509 256.707 417.284 256.594 417.171C256.481 416.945 256.481 416.72 256.481 416.495L271.475 369.37C271.588 368.919 272.039 368.694 272.377 368.807C284.215 371.85 343.402 387.521 344.191 394.849C344.529 397.78 342.613 413.338 338.441 442.311C335.059 465.986 331.339 489.887 331.226 490.112C331.339 490.676 331.001 490.901 330.55 490.901ZM299.321 489.323H329.873C330.437 485.264 333.819 463.619 336.976 442.199C342.049 406.686 342.951 396.991 342.725 395.074C342.274 390.339 299.885 377.6 272.828 370.61L258.285 416.156L293.008 423.822C293.346 423.935 293.572 424.161 293.572 424.499L299.321 489.323Z" fill="#231F20"/>
<path d="M112.628 404.094L66.9693 408.378L64.0381 438.704L59.7541 482.221H31.2315C31.2315 482.221 27.7367 462.266 24.4673 438.704C20.5215 410.294 16.6884 376.586 19.2813 365.876C24.0163 346.372 92.5607 351.783 92.5607 351.783L112.628 404.094Z" fill="white"/>
<path d="M59.7541 483.01H31.2315C30.8933 483.01 30.5551 482.784 30.4423 482.333C30.4423 482.108 26.9475 462.153 23.6781 438.816C19.845 411.534 15.8992 376.585 18.4921 365.65C23.3399 345.695 89.7422 350.768 92.5607 350.994C92.8989 350.994 93.1244 351.219 93.2371 351.558L113.304 403.868C113.417 404.093 113.417 404.319 113.192 404.544C113.079 404.77 112.853 404.882 112.628 404.882L67.6457 409.167L60.5432 482.333C60.5432 482.784 60.205 483.122 59.7541 483.01ZM31.9079 481.544H59.0776L66.1801 408.377C66.1801 408.039 66.5183 407.701 66.8565 407.701L111.501 403.417L91.997 352.572C80.6105 351.783 69.1113 351.67 57.7248 352.347C34.9518 353.7 21.8743 358.435 20.0705 366.101C18.0412 374.556 19.845 399.697 25.2564 438.704C28.1876 459.56 31.2315 477.824 31.9079 481.544Z" fill="#231F20"/>
<path d="M134.95 346.484L82.4146 351.783L91.659 414.578L182.3 404.544L272.265 424.499L293.008 371.738L228.184 351.783L134.95 346.484Z" fill="#231F20"/>
<path d="M272.264 425.288H272.152L182.3 405.333L91.7716 415.367C91.3207 415.367 90.9825 415.142 90.8697 414.691L81.6252 352.009C81.6252 351.783 81.6253 351.558 81.738 351.445C81.8507 351.22 82.0762 351.22 82.3017 351.107L134.837 345.808H134.95L228.071 351.107C228.184 351.107 228.184 351.107 228.297 351.107L293.234 371.061C293.684 371.174 293.91 371.625 293.797 372.076C293.797 372.076 293.797 372.076 293.797 372.189L273.054 424.95C272.941 425.063 272.603 425.288 272.264 425.288ZM182.3 403.755H182.413L271.701 423.597L291.881 372.301L227.846 352.572L134.837 347.274L83.2036 352.46L92.2226 413.563L182.3 403.755Z" fill="#231F20"/>
<path d="M240.585 203.759C243.178 199.362 244.531 193.274 245.884 188.314C246.786 184.932 248.251 181.55 248.364 177.942C248.364 177.266 247.011 169.6 244.982 171.291C247.575 169.149 249.153 165.992 249.604 162.723C246.898 162.046 244.08 162.159 241.487 163.061C243.742 162.272 245.884 161.144 247.8 159.791C249.379 158.777 250.957 157.086 250.28 155.395C249.604 153.704 247.011 153.478 245.095 153.478C233.708 153.816 222.885 148.856 211.499 148.518C207.891 148.179 204.284 148.856 201.014 150.547C199.21 151.562 197.632 152.914 196.279 154.38C194.024 156.86 192.559 160.355 190.304 162.61C188.726 164.188 186.471 164.752 185.005 166.781C182.187 170.614 182.412 175.687 182.412 180.197C182.525 187.863 184.216 195.529 184.104 203.083C192.672 204.548 201.465 206.352 210.146 207.141C217.136 207.818 235.963 211.538 240.585 203.759Z" fill="white"/>
<path d="M226.493 209.396C222.096 209.283 217.699 208.945 213.415 208.268C212.175 208.156 210.935 207.93 210.033 207.817C202.931 207.141 195.716 205.788 188.839 204.548L183.878 203.646C183.54 203.533 183.202 203.195 183.202 202.857C183.202 198.911 182.864 194.965 182.3 191.02C181.849 187.412 181.511 183.692 181.398 179.971V179.52C181.285 175.124 181.285 170.163 184.104 166.217C185.006 165.09 186.133 164.301 187.373 163.624C188.162 163.173 188.951 162.61 189.515 162.046C190.642 160.806 191.657 159.453 192.559 157.987C193.461 156.522 194.476 155.056 195.603 153.816C196.956 152.238 198.647 150.885 200.451 149.758C203.269 148.179 206.764 147.503 211.273 147.728C216.572 148.067 221.871 148.968 226.944 150.209C232.806 151.561 238.781 152.914 244.756 152.689C246.222 152.689 249.83 152.576 250.732 155.169C251.408 156.973 250.281 158.889 247.913 160.468C247.349 160.806 246.786 161.144 246.222 161.482C247.349 161.482 248.364 161.595 249.491 161.933C249.83 162.046 250.168 162.384 250.055 162.835C249.717 165.766 248.364 168.585 246.335 170.727C248.139 172.305 248.815 177.604 248.815 177.942C248.59 180.648 248.026 183.353 247.124 185.946C246.898 186.848 246.56 187.637 246.335 188.539C246.109 189.441 245.884 190.343 245.546 191.358C244.418 195.642 243.178 200.489 240.923 204.097C238.781 208.268 232.806 209.396 226.493 209.396ZM184.78 202.406L189.064 203.195C195.941 204.435 203.044 205.675 210.146 206.465C211.048 206.577 212.288 206.69 213.528 206.915C221.42 207.93 236.076 209.734 239.796 203.421C241.825 199.926 243.065 195.191 244.193 191.02C244.418 190.005 244.756 189.103 244.982 188.201C245.207 187.299 245.546 186.51 245.771 185.608C246.673 183.128 247.237 180.648 247.462 178.055C247.462 176.927 246.222 172.305 245.433 171.967L245.32 172.08C244.982 172.305 244.531 172.305 244.193 171.967C243.855 171.629 243.855 171.178 244.193 170.952C244.193 170.952 244.193 170.952 244.305 170.839C246.56 168.923 248.026 166.33 248.477 163.399C246.109 162.948 243.742 163.173 241.487 163.85C241.036 163.963 240.585 163.737 240.472 163.399C240.36 162.948 240.585 162.497 240.923 162.384C243.065 161.595 245.095 160.468 247.124 159.228C248.477 158.326 249.83 156.973 249.379 155.733C248.928 154.493 246.786 154.267 244.982 154.38C238.781 154.605 232.694 153.252 226.718 151.9C221.645 150.547 216.572 149.758 211.386 149.419C207.891 149.081 204.509 149.758 201.353 151.336C199.661 152.351 198.083 153.591 196.73 155.056C195.716 156.296 194.701 157.649 193.912 159.002C193.01 160.58 191.995 162.046 190.755 163.286C189.966 163.963 189.177 164.639 188.275 165.09C187.26 165.654 186.246 166.443 185.457 167.345C182.864 170.727 182.976 175.236 182.976 179.633V180.197C182.976 183.804 183.427 187.525 183.878 191.02C184.442 194.74 184.667 198.573 184.78 202.406Z" fill="#231F20"/>
<path d="M193.912 199.7C193.799 190.005 178.467 185.383 177.565 196.657C177.114 200.49 178.016 204.435 180.158 207.705C182.412 210.861 186.584 212.778 190.304 211.763" fill="white"/>
<path d="M188.275 212.891C184.78 212.778 181.624 211.087 179.594 208.269C176.889 204.436 176.55 199.926 176.776 196.657C177.227 191.133 180.834 189.216 184.216 189.329C189.177 189.442 194.588 193.726 194.701 199.701C194.701 200.152 194.363 200.49 193.912 200.49C193.461 200.49 193.123 200.152 193.123 199.813C193.01 194.74 188.388 191.133 184.216 190.907C180.834 190.794 178.692 192.936 178.354 196.77C178.129 199.701 178.354 203.985 180.834 207.367C183.089 210.524 186.922 211.989 190.079 211.087C190.53 210.974 190.981 211.2 191.093 211.651C191.206 212.102 190.981 212.553 190.53 212.666C189.741 212.778 188.951 212.891 188.275 212.891Z" fill="#231F20"/>
<path d="M227.958 203.647C230.213 194.289 246.222 193.162 244.531 204.323C244.08 208.269 242.276 211.876 239.458 214.582C236.527 217.062 232.017 218.077 228.635 216.273" fill="white"/>
<path d="M232.693 217.851C231.228 217.851 229.65 217.513 228.409 216.836C228.071 216.611 227.846 216.16 228.071 215.822C228.071 215.822 228.071 215.822 228.071 215.709C228.297 215.371 228.748 215.145 229.086 215.371H229.199C232.13 216.949 236.188 216.385 239.12 213.792C242.276 211.087 243.516 207.028 243.854 204.097C244.418 200.264 242.84 197.784 239.458 197.107C235.399 196.318 229.988 198.798 228.748 203.759C228.635 204.21 228.184 204.435 227.733 204.323C227.282 204.21 227.057 203.759 227.169 203.421C228.635 197.558 234.836 194.627 239.683 195.642C242.953 196.318 246.109 198.911 245.32 204.435C244.869 207.592 243.516 212.101 240.021 215.145C238.105 216.836 235.512 217.851 232.693 217.851Z" fill="#231F20"/>
<path d="M234.497 252.687C233.821 249.305 227.62 247.501 220.405 246.374L220.969 238.933L221.983 224.39L193.799 220.219L191.093 231.831L190.191 235.551L188.951 240.85C163.698 229.689 85.6837 207.479 58.2885 218.866C24.58 232.958 50.5096 344.117 54.23 351.558C54.23 351.558 73.0571 349.303 75.1992 354.038C77.3412 358.773 76.8902 361.366 80.1596 362.381C83.429 363.395 83.8799 360.126 83.8799 360.126C84.6691 361.817 86.5856 362.493 88.164 361.817C88.5022 361.704 88.7277 361.479 89.0659 361.253C89.0659 361.253 91.8843 364.072 93.9136 360.69C93.9136 360.69 96.3938 363.733 97.8594 360.915C99.325 358.097 100.34 344.343 95.1537 341.299C89.9678 338.255 78.5813 334.196 76.7775 331.265C76.7775 331.265 94.9282 291.92 87.1493 262.946C87.1493 262.946 101.016 277.151 142.391 287.748C142.391 287.748 154.115 309.169 155.581 309.507C157.047 309.845 214.43 315.256 214.43 315.256L230.1 287.748C230.1 287.974 236.076 260.917 234.497 252.687Z" fill="white"/>
<path d="M81.3998 363.734C80.9488 363.734 80.3851 363.621 79.9342 363.508C77.3412 362.606 76.7775 360.915 75.9884 358.435C75.5374 357.195 75.0865 355.955 74.6355 354.715C73.2827 351.558 61.558 351.784 54.4555 352.685C54.1173 352.685 53.7791 352.573 53.6663 352.235C51.0734 346.936 31.7953 269.598 44.9855 233.86C47.9167 225.969 52.3135 220.783 57.9504 218.415C73.2827 211.989 102.594 216.273 124.465 220.895C150.846 226.532 175.761 234.649 188.275 239.948L192.784 220.219C192.897 219.768 193.235 219.543 193.686 219.655L221.983 223.827C222.434 223.939 222.66 224.277 222.66 224.616L221.194 245.81C229.988 247.163 234.61 249.418 235.174 252.575C236.752 260.804 231.002 287.072 230.777 288.2C230.777 288.312 230.777 288.312 230.664 288.425L215.219 315.82C215.106 316.046 214.768 316.271 214.43 316.271C208.568 315.708 156.821 310.86 155.468 310.522C154.341 310.183 149.719 302.856 141.94 288.651C109.02 280.083 93.5754 269.485 88.615 265.427C91.7716 279.97 88.8404 296.655 85.7965 308.38C83.7672 316.271 81.0616 323.937 77.7922 331.378C79.2578 332.956 83.9927 335.211 88.2767 337.128C91.0952 338.368 93.8009 339.608 95.6047 340.735C101.354 344.117 100.114 358.435 98.5359 361.366C98.1976 362.268 97.4085 362.832 96.5066 363.057C95.6047 363.057 94.7028 362.719 94.0264 362.043C93.4627 362.719 92.7863 363.057 91.8844 363.17C90.8697 363.283 89.8551 362.945 88.9532 362.268C88.0513 362.832 86.9239 363.057 85.9093 362.832C85.2328 362.606 84.5564 362.268 84.1055 361.817C83.88 362.381 83.429 362.719 82.8654 363.057C82.5271 363.508 81.9634 363.734 81.3998 363.734ZM63.5872 350.431C68.9986 350.431 74.861 351.107 76.1011 353.926C76.6648 355.166 77.1157 356.519 77.5667 357.759C78.3558 360.126 78.6941 361.254 80.4979 361.817C81.0615 362.043 81.6252 362.043 82.1889 361.817C82.7526 361.366 83.0908 360.803 83.2036 360.126C83.2036 359.788 83.5418 359.562 83.88 359.45C84.2182 359.337 84.5564 359.562 84.6691 359.901C85.0074 360.577 85.6838 361.141 86.3602 361.366C87.1494 361.479 88.0513 361.254 88.615 360.69C88.9532 360.464 89.4041 360.464 89.6296 360.803C90.1933 361.366 90.9824 361.704 91.7716 361.704C92.448 361.592 93.0117 361.028 93.2372 360.464C93.3499 360.239 93.5754 360.126 93.9136 360.126C94.1391 360.126 94.4773 360.239 94.59 360.352C94.9283 360.803 95.8302 361.479 96.3939 361.479C96.6193 361.479 96.9575 361.141 97.183 360.69C98.6486 357.759 99.325 344.794 94.8155 342.088C93.0117 340.961 90.4188 339.833 87.6003 338.481C82.4144 336.113 77.4539 333.858 76.2138 331.829C76.1011 331.604 76.1011 331.265 76.1011 331.04C76.3266 330.702 94.0264 291.582 86.3602 263.285C86.2475 262.946 86.4729 262.608 86.6984 262.383C87.0366 262.157 87.3748 262.27 87.7131 262.495C87.8258 262.608 102.031 276.588 142.616 287.185C142.842 287.185 142.954 287.41 143.067 287.523C148.366 297.219 154.566 307.816 155.807 308.943C158.399 309.394 197.97 313.115 213.979 314.58L229.311 287.636C229.762 285.719 235.174 260.466 233.708 252.8C233.257 250.32 228.522 248.403 220.292 247.163C219.841 247.05 219.616 246.712 219.616 246.374L221.082 225.179L194.25 221.121L189.628 241.075C189.515 241.301 189.402 241.526 189.177 241.639C188.951 241.752 188.726 241.752 188.5 241.639C162.683 230.253 85.1201 208.494 58.514 219.655C53.2154 221.91 49.1568 226.758 46.3384 234.198C33.8245 267.907 51.5243 342.539 54.681 350.769C57.7249 350.656 60.6561 350.431 63.5872 350.431Z" fill="#231F20"/>
<path d="M191.995 226.532C193.912 230.365 196.618 233.634 200.112 236.002C205.637 240.286 214.205 245.472 221.758 245.359L222.885 229.801C217.361 229.688 211.95 228.899 206.539 227.434C201.804 226.306 196.956 225.066 192.897 222.586L191.995 226.532Z" fill="#231F20"/>
<path d="M221.758 246.261C213.415 246.261 204.284 240.286 199.661 236.678C196.054 234.198 193.235 230.816 191.319 226.87C191.319 226.757 191.319 226.532 191.319 226.419L192.221 222.699C192.221 222.473 192.446 222.248 192.672 222.135C192.897 222.022 193.123 222.022 193.348 222.135C197.519 224.615 202.367 225.855 206.764 226.87C212.063 228.223 217.474 229.012 222.885 229.125C223.111 229.125 223.336 229.237 223.449 229.35C223.562 229.463 223.675 229.688 223.675 229.914L222.547 245.472C222.547 245.922 222.209 246.261 221.758 246.261ZM192.897 226.419C194.701 230.026 197.294 233.07 200.676 235.438C205.073 238.82 213.415 244.344 221.082 244.682L222.096 230.703C216.798 230.477 211.612 229.688 206.426 228.335C202.254 227.321 197.632 226.193 193.461 223.939L192.897 226.419Z" fill="#231F20"/>
<path d="M238.669 178.732L233.595 213.004C233.37 214.469 233.032 215.935 232.468 217.288C228.86 227.096 218.939 232.958 208.68 231.38L206.2 231.042C196.617 229.576 189.064 222.023 187.711 212.44C187.373 210.411 187.373 208.269 187.711 206.239L192.784 171.967C192.784 171.967 197.407 179.633 212.739 181.212C228.184 182.903 238.669 178.732 238.669 178.732Z" fill="white"/>
<path d="M211.95 232.507C210.822 232.507 209.695 232.394 208.68 232.282L206.2 231.944C193.799 230.027 185.344 218.528 187.148 206.239L192.221 171.967C192.221 171.629 192.559 171.403 192.897 171.291C193.235 171.178 193.574 171.403 193.686 171.629C193.686 171.742 198.309 178.957 213.077 180.535C228.071 182.114 238.443 178.168 238.556 178.055C238.781 177.942 239.12 178.055 239.345 178.168C239.571 178.393 239.683 178.619 239.683 178.957L234.497 213.229C232.694 224.277 223.111 232.507 211.95 232.507ZM193.348 173.884L188.5 206.352C188.162 208.381 188.162 210.411 188.5 212.327C189.853 221.572 197.069 228.9 206.313 230.252L208.793 230.591C218.714 232.056 228.297 226.307 231.679 216.949C232.13 215.597 232.581 214.244 232.694 212.778L237.654 179.746C229.537 182.114 221.082 182.79 212.739 181.888C201.24 180.873 195.603 176.251 193.348 173.884Z" fill="#231F20"/>
<path d="M163.022 228.899C163.022 228.899 164.149 262.044 155.243 272.303C146.336 282.562 132.695 286.508 132.695 286.508C132.695 286.508 131.004 322.246 134.95 346.485L233.257 351.783L243.742 307.928C243.742 307.928 234.835 274.896 239.345 246.599H227.507C227.507 246.599 221.758 290.68 198.308 286.17C174.859 281.661 179.143 231.831 179.143 231.831L163.022 228.899Z" fill="#FFB300"/>
<path d="M31.2316 482.333C31.2316 482.333 -3.71705 509.052 1.2434 511.87C6.20385 514.689 65.842 508.263 65.842 508.263L59.6414 482.22H31.2316V482.333Z" fill="white"/>
<path d="M9.02228 513.336C4.85099 513.336 1.91982 513.111 0.905182 512.547C0.341495 512.209 0.00327865 511.758 0.00327865 511.082C-0.334934 505.67 25.5947 485.603 30.7806 481.657C30.8934 481.544 31.1188 481.544 31.2316 481.544H59.7542C60.0924 481.544 60.4306 481.77 60.5433 482.108L66.7439 508.15C66.7439 508.376 66.7439 508.601 66.6311 508.827C66.5184 509.052 66.2929 509.165 66.0675 509.165C61.107 509.616 25.5947 513.336 9.02228 513.336ZM31.457 483.123C19.7323 492.142 1.35613 507.587 1.58161 511.082C1.58161 511.194 1.5816 511.194 1.69434 511.194C5.1892 513.224 41.0397 510.18 64.9401 507.587L59.0777 483.01H31.457V483.123Z" fill="#231F20"/>
<path d="M298.532 490.112L296.165 512.547H352.759C354.45 512.547 355.803 511.194 355.803 509.503C355.803 508.488 355.352 507.586 354.563 507.022L330.549 490.112H298.532Z" fill="white"/>
<path d="M352.759 513.336H296.277C296.052 513.336 295.826 513.224 295.714 513.111C295.601 512.998 295.488 512.773 295.488 512.547L297.743 490.112C297.743 489.662 298.081 489.436 298.532 489.436H330.55C330.662 489.436 330.888 489.436 331.001 489.549L355.014 506.459C356.705 507.7 357.156 510.067 355.916 511.758C355.239 512.773 353.999 513.449 352.759 513.336ZM297.067 511.871H352.759C353.999 511.871 355.014 510.856 355.014 509.616C355.014 508.94 354.675 508.263 354.112 507.812L330.324 491.014H299.321L297.067 511.871Z" fill="#231F20"/>
<path d="M390.188 304.885C390.188 303.306 390.639 301.841 391.428 300.601V298.91H412.172C414.426 298.91 416.23 301.615 416.23 304.885C416.23 308.154 414.426 310.86 412.172 310.86H391.428V309.169C390.526 307.929 390.075 306.463 390.188 304.885Z" fill="#231F20"/>
<path d="M412.059 311.649H391.315C390.864 311.649 390.526 311.31 390.526 310.859V309.394C388.835 306.575 388.835 303.081 390.526 300.262V298.796C390.526 298.346 390.864 298.007 391.315 298.007H412.059C414.764 298.007 416.906 300.938 416.906 304.772C416.906 308.605 414.764 311.649 412.059 311.649ZM392.217 310.07H412.059C413.863 310.07 415.328 307.703 415.328 304.884C415.328 302.066 413.863 299.698 412.059 299.698H392.217V300.6C392.217 300.713 392.217 300.938 392.104 301.051C390.639 303.419 390.639 306.463 392.104 308.83C392.217 308.943 392.217 309.168 392.217 309.281V310.07Z" fill="#231F20"/>
<path d="M391.428 310.86C393.669 310.86 395.486 308.185 395.486 304.885C395.486 301.585 393.669 298.91 391.428 298.91C389.186 298.91 387.369 301.585 387.369 304.885C387.369 308.185 389.186 310.86 391.428 310.86Z" fill="white"/>
<path d="M391.428 311.649C388.722 311.649 386.58 308.717 386.58 304.884C386.58 301.051 388.722 298.12 391.428 298.12C394.133 298.12 396.276 301.051 396.276 304.884C396.276 308.717 394.133 311.649 391.428 311.649ZM391.428 299.698C389.737 299.698 388.158 302.066 388.158 304.884C388.158 307.703 389.624 310.07 391.428 310.07C393.232 310.07 394.697 307.703 394.697 304.884C394.697 302.066 393.119 299.698 391.428 299.698Z" fill="#231F20"/>
<path d="M350.392 304.884C350.392 294.062 353.436 284.253 358.283 277.264V266.554H376.096C390.301 266.554 401.8 283.69 401.8 304.884C401.8 326.079 390.301 343.215 376.096 343.215H358.396V332.505C353.436 325.515 350.392 315.82 350.392 304.884Z" fill="white"/>
<path d="M376.096 344.004H358.283C357.832 344.004 357.494 343.666 357.494 343.215V332.843C352.421 325.402 349.603 315.481 349.603 304.997C349.603 294.512 352.421 284.591 357.494 277.151V266.666C357.494 266.215 357.832 265.877 358.283 265.877H376.096C390.639 265.877 402.589 283.464 402.589 304.997C402.589 326.53 390.639 344.004 376.096 344.004ZM359.072 342.426H375.983C389.737 342.426 400.898 325.628 400.898 304.884C400.898 284.14 389.737 267.343 375.983 267.343H359.072V277.263C359.072 277.376 359.072 277.602 358.96 277.714C353.887 284.93 351.181 294.512 351.181 304.884C351.181 315.256 353.887 324.839 358.96 332.054C359.072 332.167 359.072 332.392 359.072 332.505V342.426Z" fill="#231F20"/>
<path d="M358.283 343.215C372.479 343.215 383.987 326.054 383.987 304.884C383.987 283.715 372.479 266.554 358.283 266.554C344.087 266.554 332.579 283.715 332.579 304.884C332.579 326.054 344.087 343.215 358.283 343.215Z" fill="#231F20"/>
<path d="M358.283 344.004C343.74 344.004 331.79 326.417 331.79 304.884C331.79 283.351 343.627 265.764 358.283 265.764C372.939 265.764 384.776 283.351 384.776 304.884C384.776 326.417 372.939 344.004 358.283 344.004ZM358.283 267.342C344.529 267.342 333.368 284.14 333.368 304.884C333.368 325.628 344.529 342.426 358.283 342.426C372.037 342.426 383.198 325.628 383.198 304.884C383.198 284.14 372.037 267.342 358.283 267.342Z" fill="#231F20"/>
<path d="M239.458 246.712C239.458 246.712 273.279 242.089 280.269 257.422C285.004 268.019 296.052 327.206 296.052 327.206L316.457 310.972L345.431 315.369C345.431 315.369 306.875 385.491 280.156 374.781C253.437 364.071 241.149 295.865 241.149 295.865C238.668 287.861 237.09 279.518 236.414 271.176C235.625 259.225 239.458 246.712 239.458 246.712Z" fill="white"/>
<path d="M286.131 376.698C283.989 376.698 281.96 376.36 279.931 375.571C268.657 371.061 258.51 356.293 249.942 331.716C245.884 320.104 242.727 308.266 240.36 296.204C237.879 288.086 236.301 279.857 235.625 271.401C234.948 259.451 238.669 246.712 238.669 246.599C238.781 246.261 239.007 246.035 239.345 246.035C240.698 245.81 273.843 241.526 280.945 257.196C285.342 267.004 294.812 316.947 296.503 325.853L315.894 310.296C316.119 310.183 316.232 310.07 316.457 310.183L345.431 314.58C345.656 314.58 345.882 314.805 345.995 315.031C346.107 315.256 346.107 315.482 345.995 315.707C339.23 327.545 331.677 338.818 323.334 349.528C309.017 367.566 296.39 376.698 286.131 376.698ZM240.021 247.388C239.345 249.868 236.527 260.804 237.203 271.176C237.879 279.518 239.458 287.748 241.938 295.64C242.051 296.429 254.677 363.621 280.607 373.992C282.411 374.669 284.215 375.007 286.131 375.007C309.693 375.007 339.794 323.711 344.304 315.933L316.796 311.761L296.616 327.77C296.39 327.883 296.165 327.995 295.827 327.883C295.601 327.77 295.376 327.545 295.376 327.319C295.263 326.755 284.327 268.019 279.705 257.76C273.279 244.119 244.193 246.937 240.021 247.388Z" fill="#231F20"/>
<path d="M288.273 304.885C288.273 303.306 288.724 301.841 289.513 300.601V298.91H360.763C363.018 298.91 364.822 301.615 364.822 304.885C364.822 308.154 363.018 310.86 360.763 310.86H289.513V309.169C288.611 307.929 288.16 306.463 288.273 304.885Z" fill="white"/>
<path d="M360.763 311.649H289.513C289.062 311.649 288.724 311.31 288.724 310.859V309.394C287.033 306.575 287.033 303.081 288.724 300.262V298.796C288.724 298.346 289.062 298.007 289.513 298.007H360.763C363.469 298.007 365.611 300.938 365.611 304.772C365.611 308.605 363.469 311.649 360.763 311.649ZM290.302 310.07H360.763C362.454 310.07 364.033 307.703 364.033 304.884C364.033 302.066 362.567 299.698 360.763 299.698H290.302V300.6C290.302 300.713 290.302 300.938 290.19 301.051C288.724 303.419 288.724 306.463 290.19 308.83C290.302 308.943 290.302 309.168 290.302 309.281V310.07Z" fill="#231F20"/>
<path d="M320.854 292.596C320.629 292.032 320.403 291.581 320.291 290.905C320.178 288.876 322.996 287.636 324.913 288.538C326.829 289.439 327.957 291.356 328.859 293.16C328.069 292.145 327.619 291.018 327.393 289.778C327.168 288.538 327.844 287.297 329.084 286.734C330.212 286.508 331.452 286.959 332.241 287.861C333.819 289.327 335.059 291.243 335.848 293.272C335.285 291.694 335.397 290.003 335.961 288.425C336.638 286.846 338.329 285.945 340.02 286.17C342.274 286.621 343.176 289.214 343.74 291.469C343.74 290.116 343.853 288.425 344.867 287.523C346.558 286.17 348.926 287.636 350.392 289.214C355.69 295.189 358.509 309.394 351.181 315.144C343.853 320.893 331.79 320.329 324.236 315.256C319.84 312.325 320.403 309.507 321.756 304.997C322.996 300.939 322.658 296.429 320.854 292.596Z" fill="white"/>
<path d="M338.328 320.217C333.255 320.217 328.295 318.864 323.898 316.158C319.163 313.001 319.727 309.507 321.08 304.997C322.207 301.051 321.982 296.88 320.29 293.272L320.178 292.934C319.839 292.37 319.614 291.694 319.614 291.018C319.614 289.89 320.178 288.876 321.08 288.312C322.32 287.523 323.898 287.297 325.364 287.861C325.815 288.086 326.378 288.425 326.716 288.763C326.942 287.523 327.731 286.508 328.971 286.057C330.437 285.832 331.902 286.283 332.917 287.41C333.706 288.086 334.383 288.876 334.946 289.777C335.059 289.214 335.172 288.763 335.397 288.312C336.299 286.395 338.216 285.381 340.358 285.606C341.823 285.944 343.063 287.072 343.627 288.425C343.853 287.974 344.191 287.523 344.642 287.185C346.671 285.606 349.489 286.959 351.181 288.988C354.788 293.047 357.043 300.488 356.479 306.575C356.141 310.747 354.563 314.016 351.857 316.158C347.911 318.864 343.176 320.442 338.328 320.217ZM323.56 289.101C322.996 289.101 322.32 289.327 321.869 289.552C321.418 289.89 321.08 290.341 321.08 290.905C321.192 291.356 321.305 291.807 321.531 292.258L321.643 292.596C323.56 296.654 323.898 301.277 322.545 305.448C321.192 310.07 320.967 312.325 324.687 314.805C331.451 319.315 343.289 320.555 350.617 314.692C353.548 312.325 354.45 308.83 354.675 306.237C355.126 300.6 353.097 293.723 349.715 289.89C348.7 288.763 346.558 287.297 345.318 288.312C344.529 288.988 344.416 290.341 344.416 291.581C344.416 292.032 344.078 292.37 343.74 292.37C343.289 292.37 342.951 292.145 342.838 291.807C342.387 290.003 341.598 287.523 339.794 287.072C338.441 286.959 337.201 287.635 336.637 288.876C336.074 290.228 336.074 291.807 336.525 293.16C336.637 293.611 336.412 294.062 335.961 294.174C335.51 294.287 335.059 294.062 334.946 293.611C334.27 291.694 333.143 289.89 331.564 288.537C330.888 287.974 329.986 287.297 329.197 287.523C328.408 287.861 327.957 288.763 328.069 289.665C328.182 290.003 328.182 290.454 328.408 290.792C328.858 291.356 329.197 292.032 329.535 292.709C329.76 293.047 329.535 293.611 329.197 293.723C328.858 293.836 328.408 293.836 328.182 293.498C327.731 292.821 327.393 292.258 327.055 291.581C326.491 290.567 325.589 289.777 324.574 289.214C324.349 289.101 324.011 289.101 323.56 289.101Z" fill="#231F20"/>
<path d="M272.264 304.884C272.264 294.062 275.308 284.253 280.156 277.264V266.554H297.969C312.173 266.554 323.673 283.69 323.673 304.884C323.673 326.079 312.173 343.215 297.969 343.215H280.269V332.505C275.308 325.515 272.264 315.82 272.264 304.884Z" fill="#231F20"/>
<path d="M297.969 344.004H280.156C279.705 344.004 279.367 343.666 279.367 343.215V332.843C274.294 325.402 271.475 315.481 271.475 304.997C271.475 294.512 274.294 284.591 279.367 277.151V266.666C279.367 266.215 279.705 265.877 280.156 265.877H297.969C312.512 265.877 324.462 283.464 324.462 304.997C324.462 326.53 312.512 344.004 297.969 344.004ZM280.945 342.426H297.856C311.61 342.426 322.771 325.628 322.771 304.884C322.771 284.14 311.61 267.343 297.856 267.343H280.833V277.263C280.833 277.376 280.833 277.602 280.72 277.714C275.647 284.93 272.941 294.512 272.941 304.884C272.941 315.256 275.647 324.839 280.72 332.054C280.833 332.167 280.833 332.392 280.833 332.505L280.945 342.426Z" fill="#231F20"/>
<path d="M280.156 343.215C294.352 343.215 305.86 326.054 305.86 304.884C305.86 283.715 294.352 266.554 280.156 266.554C265.96 266.554 254.452 283.715 254.452 304.884C254.452 326.054 265.96 343.215 280.156 343.215Z" fill="white"/>
<path d="M280.156 344.004C265.613 344.004 253.663 326.417 253.663 304.884C253.663 283.351 265.5 265.764 280.156 265.764C294.812 265.764 306.649 283.351 306.649 304.884C306.649 326.417 294.812 344.004 280.156 344.004ZM280.156 267.342C266.402 267.342 255.241 284.14 255.241 304.884C255.241 325.628 266.402 342.426 280.156 342.426C293.91 342.426 305.071 325.628 305.071 304.884C305.071 284.14 293.91 267.342 280.156 267.342Z" fill="#231F20"/>
<path d="M280.156 332.167C269.897 332.167 261.554 319.878 261.554 304.884C261.554 289.89 269.897 277.602 280.156 277.602C290.415 277.602 298.758 289.89 298.758 304.884C298.758 319.878 290.415 332.167 280.156 332.167ZM280.156 279.18C270.799 279.18 263.245 290.679 263.245 304.884C263.245 319.089 270.799 330.588 280.156 330.588C289.513 330.588 297.067 319.089 297.067 304.884C297.067 290.679 289.513 279.18 280.156 279.18Z" fill="#D1D3D4"/>
<path d="M252.084 304.885C252.084 303.306 252.535 301.841 253.324 300.601V298.91H278.803C281.058 298.91 282.862 301.615 282.862 304.885C282.862 308.154 281.058 310.86 278.803 310.86H253.324V309.169C252.423 307.929 251.972 306.463 252.084 304.885Z" fill="#231F20"/>
<path d="M278.69 311.649H253.325C252.874 311.649 252.535 311.31 252.535 310.859V309.394C250.844 306.575 250.844 303.081 252.535 300.262V298.796C252.535 298.346 252.874 298.007 253.325 298.007H278.69C281.396 298.007 283.538 300.938 283.538 304.772C283.538 308.605 281.396 311.649 278.69 311.649ZM254.114 310.07H278.803C280.607 310.07 282.073 307.703 282.073 304.884C282.073 302.066 280.607 299.698 278.803 299.698H254.226V300.6C254.226 300.713 254.226 300.938 254.114 301.051C252.648 303.419 252.648 306.463 254.114 308.83C254.226 308.943 254.226 309.168 254.226 309.281L254.114 310.07Z" fill="#231F20"/>
<path d="M253.325 310.86C255.566 310.86 257.383 308.185 257.383 304.885C257.383 301.585 255.566 298.91 253.325 298.91C251.083 298.91 249.266 301.585 249.266 304.885C249.266 308.185 251.083 310.86 253.325 310.86Z" fill="white"/>
<path d="M253.324 311.649C250.619 311.649 248.477 308.717 248.477 304.884C248.477 301.051 250.619 298.12 253.324 298.12C256.03 298.12 258.172 301.051 258.172 304.884C258.172 308.717 256.03 311.649 253.324 311.649ZM253.324 299.698C251.633 299.698 250.055 302.066 250.055 304.884C250.055 307.703 251.52 310.07 253.324 310.07C255.128 310.07 256.594 307.703 256.594 304.884C256.594 302.066 255.015 299.698 253.324 299.698Z" fill="#231F20"/>
<path d="M64.0381 438.704L59.7541 482.221H31.2315C31.2315 482.221 27.7367 462.266 24.4673 438.704H64.0381Z" fill="#D1D3D4"/>
<path d="M59.7542 483.01H31.2316C30.8934 483.01 30.5552 482.784 30.4425 482.333C30.4425 482.108 26.9476 462.153 23.6782 438.816C23.6782 438.365 23.9037 438.027 24.3546 437.915H24.4674H64.0383C64.4892 437.915 64.8274 438.253 64.8274 438.704C64.8274 438.704 64.8274 438.704 64.8274 438.816L60.5434 482.333C60.5434 482.784 60.2052 483.122 59.7542 483.01ZM31.9081 481.544H59.0778L63.1363 439.606H25.3693C28.3005 460.124 31.2316 477.936 31.9081 481.544Z" fill="#231F20"/>
<path d="M337.765 442.312C334.27 466.212 330.55 490.112 330.55 490.112H298.532L294.361 442.312H337.765Z" fill="#D1D3D4"/>
<path d="M330.55 490.901H298.532C298.081 490.901 297.743 490.563 297.743 490.225L293.572 442.424C293.572 442.198 293.685 441.973 293.797 441.86C293.91 441.748 294.135 441.635 294.361 441.635H337.652C337.878 441.635 338.103 441.748 338.216 441.86C338.329 442.086 338.441 442.311 338.441 442.537C335.059 466.212 331.339 490.112 331.226 490.337C331.226 490.676 331.001 490.901 330.55 490.901ZM299.321 489.323H329.873C330.437 485.377 333.706 464.182 336.75 443.1H295.263L299.321 489.323Z" fill="#231F20"/>
<path d="M187.035 415.367H172.492V495.524H187.035V415.367Z" fill="#231F20"/>
<path d="M187.148 496.312H172.605C172.154 496.312 171.815 495.974 171.815 495.523V415.367C171.815 414.916 172.154 414.578 172.605 414.578H187.148C187.599 414.578 187.937 414.916 187.937 415.367V495.523C187.937 495.974 187.599 496.312 187.148 496.312ZM173.281 494.734H186.246V416.156H173.281V494.734Z" fill="#231F20"/>
<path d="M217.699 495.523H142.729V503.189H217.699V495.523Z" fill="white"/>
<path d="M217.7 503.979H142.729C142.278 503.979 141.94 503.641 141.94 503.19V495.524C141.94 495.073 142.278 494.734 142.729 494.734H217.7C218.151 494.734 218.489 495.073 218.489 495.524V503.19C218.489 503.528 218.038 503.979 217.7 503.979ZM143.518 502.401H216.91V496.313H143.518V502.401Z" fill="#231F20"/>
<path d="M142.729 399.584H216.798C221.082 399.584 224.576 403.079 224.576 407.363V413.563C224.576 417.847 221.082 421.342 216.798 421.342H142.729C138.445 421.342 134.95 417.847 134.95 413.563V407.363C135.063 403.079 138.558 399.584 142.729 399.584Z" fill="white"/>
<path d="M213.754 422.018H145.886C139.46 422.018 134.274 416.832 134.274 410.406C134.274 403.98 139.46 398.794 145.886 398.794H213.754C220.18 398.794 225.366 403.98 225.366 410.406C225.366 416.832 220.18 422.018 213.754 422.018ZM145.886 400.373C140.362 400.373 135.852 404.882 135.852 410.406C135.852 415.931 140.362 420.44 145.886 420.44H213.754C219.278 420.44 223.787 415.931 223.787 410.406C223.787 404.882 219.278 400.373 213.754 400.373H145.886Z" fill="#231F20"/>
</svg>
