<svg width="256" height="279" viewBox="0 0 256 279" fill="none" xmlns="http://www.w3.org/2000/svg">
<circle cx="131" cy="139" r="125" fill="white" fill-opacity="0.5"/>
<path d="M26.8967 224.522C24.8055 243.266 18.9189 268.361 16.208 277.733H43.6269L60.512 275.719C60.512 275.719 64.3848 239.16 66.8633 231.105C69.3419 223.05 67.4055 146.602 67.4829 145.905C67.5604 145.208 26.1996 163.875 22.0945 181.767C20.5455 188.66 27.6713 218.17 26.8967 224.522Z" fill="white"/>
<path d="M16.2857 278.275C16.1308 278.275 15.9759 278.197 15.821 278.043C15.7435 277.888 15.6661 277.733 15.7435 277.578C18.4544 268.206 24.341 243.033 26.4322 224.444C26.7421 221.733 25.5028 214.297 24.1861 206.475C22.4821 196.173 20.7006 185.562 21.6301 181.612C25.5802 164.417 64.9272 145.285 67.5606 145.285H67.6381C67.9479 145.363 68.1028 145.595 68.1028 145.905C68.1028 146.06 68.1028 148.151 68.1803 151.017C68.4901 169.141 69.5745 224.367 67.4832 231.26C65.0821 239.16 61.2094 275.409 61.1319 275.796C61.1319 276.029 60.8995 276.261 60.6672 276.261L43.8595 278.275H16.2857ZM16.9828 277.191H43.7046L60.0475 275.177C60.5123 270.839 64.0752 238.463 66.3988 230.873C67.793 226.38 68.0254 199.504 67.0959 150.94C67.0185 148.461 67.0184 147.144 67.0184 146.447C62.0614 148.306 26.5097 165.191 22.7144 181.767C21.8624 185.562 23.6439 196.56 25.2704 206.242C26.5872 214.143 27.8264 221.656 27.5166 224.521C25.4253 242.723 19.7712 267.276 16.9828 277.191Z" fill="#231F20"/>
<path d="M15.511 249.694L17.9895 233.506L67.7154 242.181L65.7016 259.763L15.511 249.694Z" fill="white"/>
<path d="M65.7018 260.305H65.6243L15.4337 250.236C15.1239 250.159 14.969 249.927 14.969 249.617L17.4475 233.351C17.4475 233.196 17.525 233.041 17.6799 232.964C17.8348 232.887 17.9123 232.809 18.0672 232.887L67.793 241.639C68.1028 241.716 68.2578 241.949 68.2578 242.259L66.2439 259.841C66.2439 259.996 66.1665 260.151 66.0116 260.228C65.9341 260.305 65.8567 260.305 65.7018 260.305ZM16.1308 249.307L65.237 259.144L67.0959 242.646L18.4545 234.048L16.1308 249.307Z" fill="#231F20"/>
<path d="M68.9547 277.733L70.039 252.792L13.2648 241.716L5.75171 277.733H68.9547Z" fill="#231F20"/>
<path d="M68.9547 278.275H5.67426C5.36444 278.275 5.13208 278.043 5.13208 277.733V277.655L12.7226 241.639C12.8001 241.329 13.0324 241.174 13.3423 241.252L70.1939 252.25C70.4263 252.328 70.6587 252.56 70.6587 252.792L69.5743 277.655C69.5743 278.043 69.3419 278.275 68.9547 278.275C69.0321 278.275 69.0321 278.275 68.9547 278.275ZM6.37135 277.191H68.4125L69.4194 253.257L13.6521 242.336L6.37135 277.191Z" fill="#231F20"/>
<path d="M60.8993 247.758C62.1826 247.758 63.223 246.718 63.223 245.434C63.223 244.151 62.1826 243.111 60.8993 243.111C59.616 243.111 58.5757 244.151 58.5757 245.434C58.5757 246.718 59.616 247.758 60.8993 247.758Z" fill="#231F20"/>
<path d="M155.741 5.55878L9.40869 58.4805L79.69 252.813L226.022 199.891L155.741 5.55878Z" fill="white"/>
<path d="M80.2632 252.947C80.0309 252.947 79.7985 252.792 79.7985 252.56L9.00501 58.3038C8.92756 57.994 9.08247 57.6842 9.31483 57.6067L155.627 4.39539C155.936 4.31794 156.246 4.47285 156.324 4.70521L227.117 198.961C227.195 199.116 227.195 199.271 227.117 199.349C227.04 199.504 226.962 199.581 226.807 199.658L80.4956 252.947C80.4182 252.947 80.3407 252.947 80.2632 252.947ZM10.2443 58.4587L80.6505 251.708L225.878 198.806L155.472 5.55721L10.2443 58.4587Z" fill="#231F20"/>
<path d="M151.405 4.05242L5.125 57.3274L75.8667 251.567L222.147 198.292L151.405 4.05242Z" fill="white"/>
<path d="M75.9256 252.173C75.6933 252.173 75.4609 252.018 75.3835 251.785L4.58997 57.5293C4.51252 57.2195 4.66742 56.9096 4.89979 56.8322L151.134 3.54344C151.289 3.46599 151.444 3.46599 151.521 3.54344C151.676 3.6209 151.754 3.69835 151.831 3.85326L222.625 198.109C222.702 198.264 222.702 198.419 222.625 198.497C222.547 198.652 222.47 198.729 222.315 198.806L76.0031 252.095L75.9256 252.173ZM5.82925 57.6842L76.2355 250.933L221.463 198.032L151.057 4.70526L5.82925 57.6842Z" fill="#231F20"/>
<path d="M146.741 1.23797L0.408936 54.1597L70.6902 248.492L217.022 195.571L146.741 1.23797Z" fill="white"/>
<path d="M71.3558 248.687C71.1235 248.687 70.8911 248.532 70.8136 248.3L0.0201481 54.0439C-0.0573065 53.7341 0.0976039 53.4243 0.329968 53.3468L146.642 0.0580909C146.797 -0.0193636 146.952 -0.0193636 147.029 0.0580909C147.184 0.135546 147.261 0.213001 147.339 0.36791L218.132 194.701C218.21 195.011 218.055 195.321 217.822 195.399L71.5107 248.687C71.4333 248.687 71.4333 248.687 71.3558 248.687ZM1.25942 54.1988L71.6656 247.448L216.893 194.547L146.564 1.29736L1.25942 54.1988Z" fill="#231F20"/>
<path d="M85.9947 50.2485C85.7623 50.2485 85.53 50.0936 85.4525 49.8612C85.3751 49.5514 85.53 49.2416 85.7623 49.1642L115.66 38.243C115.97 38.1656 116.279 38.3205 116.357 38.5529C116.434 38.8627 116.279 39.1725 116.047 39.25L86.1496 50.1711C86.1496 50.2485 86.0722 50.2485 85.9947 50.2485Z" fill="#231F20"/>
<path d="M90.1774 61.6346C89.8676 61.6346 89.6353 61.4022 89.6353 61.0924C89.6353 60.86 89.7902 60.6277 90.0225 60.5502L132.777 44.9818C133.087 44.9044 133.397 45.0593 133.475 45.2916C133.552 45.6015 133.475 45.9113 133.165 45.9887L90.3323 61.6346C90.2549 61.6346 90.2549 61.6346 90.1774 61.6346Z" fill="#231F20"/>
<path d="M94.2822 73.0203C93.9724 73.0203 93.74 72.7879 93.74 72.4781C93.74 72.2457 93.8949 72.0908 94.0498 72.0133L113.336 64.965C113.646 64.8875 113.956 65.0424 114.033 65.2748C114.111 65.5846 113.956 65.8944 113.723 65.9719L94.4371 73.0203C94.4371 72.9428 94.3596 73.0203 94.2822 73.0203Z" fill="#231F20"/>
<path d="M121.159 63.1836C120.849 63.1836 120.617 62.9513 120.617 62.6415C120.617 62.4091 120.772 62.1767 121.004 62.0993L140.29 55.0509C140.6 54.9735 140.91 55.1284 140.987 55.3607C141.065 55.6706 140.91 55.9804 140.678 56.0578L121.391 63.1062C121.314 63.1836 121.237 63.1836 121.159 63.1836Z" fill="#231F20"/>
<path d="M98.4649 84.3287C98.2325 84.3287 98.0001 84.1738 98.0001 83.9415C97.9227 83.6317 98.0776 83.3218 98.31 83.2444L128.207 72.4007C128.517 72.3233 128.827 72.4007 128.905 72.7106C128.982 73.0204 128.827 73.3302 128.595 73.4077L98.6972 84.3287C98.5423 84.3287 98.4649 84.3287 98.4649 84.3287Z" fill="#D1D3D4"/>
<path d="M69.3423 119.803C69.1099 119.803 68.8775 119.648 68.8775 119.416C68.8001 119.106 68.8775 118.796 69.1874 118.718L98.6976 107.952C99.0074 107.875 99.3172 108.03 99.3947 108.262C99.4721 108.572 99.3172 108.882 99.0848 108.959L69.4972 119.803C69.4972 119.803 69.4197 119.803 69.3423 119.803Z" fill="#D1D3D4"/>
<path d="M67.8251 133.911L54.5798 138.735L58.4496 149.36L71.6949 144.536L67.8251 133.911Z" fill="white"/>
<path d="M58.4211 149.933C58.3437 149.933 58.2662 149.933 58.1888 149.855C58.0339 149.778 57.9564 149.7 57.879 149.545L54.0062 138.934C53.9288 138.624 54.0837 138.314 54.316 138.237L67.5608 133.435C67.7157 133.357 67.8706 133.357 67.9481 133.435C68.103 133.512 68.1804 133.59 68.2579 133.745L72.1306 144.356C72.2081 144.666 72.0532 144.976 71.8208 145.053L58.576 149.855C58.576 149.855 58.4986 149.933 58.4211 149.933ZM55.323 139.089L58.8084 148.693L70.9688 144.278L67.4833 134.674L55.323 139.089Z" fill="#231F20"/>
<path d="M60.5493 114.947L47.304 119.771L51.1737 130.397L64.419 125.573L60.5493 114.947Z" fill="white"/>
<path d="M51.2175 130.956C50.9852 130.956 50.7528 130.802 50.6753 130.569L46.8026 119.958C46.7252 119.648 46.8801 119.338 47.1124 119.261L60.3572 114.459C60.667 114.381 60.9768 114.536 61.0543 114.768L64.927 125.38C65.0044 125.69 64.8495 125.999 64.6172 126.077L51.3724 130.879C51.295 130.879 51.295 130.956 51.2175 130.956ZM48.0419 120.113L51.5273 129.717L63.7652 125.302L60.2797 115.698L48.0419 120.113Z" fill="#231F20"/>
<path d="M75.8485 137.617C75.6161 137.617 75.3837 137.462 75.3063 137.23C75.2288 136.92 75.3837 136.61 75.6161 136.533L105.126 125.767C105.436 125.689 105.746 125.844 105.823 126.077C105.901 126.386 105.746 126.696 105.514 126.774L76.0034 137.617C75.9259 137.617 75.9259 137.617 75.8485 137.617Z" fill="#D1D3D4"/>
<path d="M123.219 93.637L109.974 98.4609L113.844 109.086L127.089 104.262L123.219 93.637Z" fill="white"/>
<path d="M113.878 109.579C113.646 109.579 113.414 109.424 113.336 109.191L109.463 98.5802C109.386 98.4253 109.386 98.2704 109.463 98.1929C109.541 98.038 109.618 97.9606 109.773 97.8831L123.018 93.0809C123.328 93.0035 123.638 93.1584 123.715 93.3908L127.588 104.002C127.665 104.157 127.665 104.312 127.588 104.389C127.51 104.544 127.433 104.622 127.278 104.699L114.033 109.501C113.956 109.579 113.878 109.579 113.878 109.579ZM110.703 98.7351L114.188 108.339L126.426 103.847L122.94 94.2428L110.703 98.7351Z" fill="#231F20"/>
<path d="M131.228 97.2634C130.918 97.2634 130.686 97.0311 130.686 96.7213C130.686 96.4889 130.841 96.334 130.996 96.2565L160.506 85.4903C160.738 85.4129 161.048 85.4903 161.203 85.8002C161.281 86.11 161.203 86.4198 160.893 86.4972L131.383 97.2634C131.306 97.2634 131.306 97.2634 131.228 97.2634Z" fill="#D1D3D4"/>
<path d="M129.731 111.441L116.486 116.264L120.356 126.89L133.601 122.066L129.731 111.441Z" fill="white"/>
<path d="M120.307 127.393C120.075 127.393 119.843 127.239 119.843 127.006L115.97 116.395C115.892 116.085 116.047 115.775 116.28 115.698L129.524 110.896C129.834 110.818 130.144 110.896 130.221 111.205L134.094 121.817C134.172 122.127 134.094 122.436 133.784 122.514L120.54 127.316C120.462 127.393 120.385 127.393 120.307 127.393ZM117.132 116.55L120.617 126.154L132.855 121.739L129.369 112.135L117.132 116.55Z" fill="#231F20"/>
<path d="M137.657 115.078C137.425 115.078 137.192 114.923 137.115 114.691C137.037 114.381 137.192 114.071 137.425 113.994L166.935 103.228C167.245 103.073 167.555 103.228 167.632 103.46C167.787 103.77 167.632 104.08 167.4 104.157H167.322L137.812 114.923C137.812 115.001 137.735 115.078 137.657 115.078Z" fill="#D1D3D4"/>
<path d="M174.383 123.402L63.6902 163.716L75.8825 197.193L186.575 156.879L174.383 123.402Z" fill="white"/>
<path d="M75.9254 197.8C75.848 197.8 75.7705 197.8 75.6931 197.722C75.5382 197.645 75.4607 197.567 75.3833 197.412L63.2229 163.952C63.1454 163.797 63.1454 163.642 63.2229 163.565C63.3003 163.41 63.3778 163.332 63.5327 163.255L174.215 122.979C174.525 122.901 174.835 122.979 174.912 123.288L187.15 156.749C187.228 156.904 187.228 157.059 187.15 157.136C187.073 157.291 186.995 157.368 186.84 157.446L76.0804 197.722C76.0029 197.8 75.9254 197.8 75.9254 197.8ZM64.3847 164.03L76.2353 196.483L185.911 156.516L174.06 124.063L64.3847 164.03Z" fill="#231F20"/>
<path d="M66.321 171.465C66.0112 171.465 65.7788 171.233 65.7788 170.923C65.7788 170.691 65.9337 170.536 66.0886 170.458L176.771 130.104C177.081 129.949 177.391 130.104 177.468 130.337C177.623 130.647 177.468 130.956 177.236 131.034H177.159L66.4759 171.388C66.3984 171.465 66.3984 171.465 66.321 171.465Z" fill="#231F20"/>
<path d="M106.52 186.646C106.288 186.646 106.055 186.492 105.978 186.259L93.7401 152.799C93.6627 152.489 93.8176 152.179 94.0499 152.102C94.3598 152.024 94.6696 152.179 94.747 152.412L106.985 185.872C107.062 186.182 106.907 186.492 106.675 186.569C106.675 186.569 106.598 186.646 106.52 186.646Z" fill="#231F20"/>
<path d="M152.761 203.454C152.528 203.454 152.296 203.299 152.218 203.067C152.141 202.757 152.296 202.447 152.528 202.37L197.142 186.104C197.452 185.949 197.762 186.104 197.839 186.336C197.994 186.646 197.839 186.956 197.607 187.034H197.529L152.915 203.299C152.838 203.454 152.838 203.454 152.761 203.454Z" fill="#D1D3D4"/>
<path d="M79.6435 208.178C79.3337 208.178 79.1013 207.946 79.1013 207.636C79.1013 207.404 79.2562 207.172 79.4886 207.094L190.171 166.818C190.404 166.663 190.791 166.818 190.868 167.05C191.023 167.282 190.868 167.67 190.636 167.747C190.636 167.747 190.558 167.747 190.558 167.825L79.8759 208.101C79.7984 208.178 79.721 208.178 79.6435 208.178Z" fill="#D1D3D4"/>
<path d="M126.736 32.3567C125.419 32.3567 124.257 31.5822 123.793 30.3429L118.913 16.7883C118.758 16.4785 118.913 16.1687 119.145 16.0912C119.378 16.0138 119.765 16.0912 119.842 16.3236V16.4011L124.799 29.9556C125.187 30.9625 126.349 31.5047 127.355 31.1174C128.362 30.7302 128.905 29.5683 128.517 28.5614L121.546 9.04288C121.237 8.11342 120.539 7.33888 119.61 6.9516C118.681 6.56433 117.674 6.48687 116.744 6.79669C114.808 7.49378 113.801 9.66252 114.498 11.5989L114.808 12.3734C114.885 12.6832 114.73 12.9931 114.498 13.0705C114.188 13.148 113.878 13.0705 113.801 12.7607L113.491 11.9862C112.639 9.43015 114.033 6.71924 116.589 5.86724C118.99 5.09269 121.624 6.33197 122.553 8.6556L129.679 28.1742C130.299 29.8007 129.447 31.5822 127.82 32.1243C127.433 32.2793 127.123 32.3567 126.736 32.3567Z" fill="#231F20"/>
<path d="M29.0659 190.751C35.0299 180.992 42.6205 165.966 47.655 155.742C50.0561 150.707 59.1183 153.496 59.7379 157.756C60.6674 163.72 50.1336 194.469 50.0561 194.314C58.2663 204.073 59.7379 218.945 53.5416 230.021" fill="white"/>
<path d="M53.5413 230.718C53.2315 230.718 52.9991 230.486 52.9991 230.176C52.9991 230.098 52.9991 230.021 53.0766 229.943C59.0406 219.1 57.6464 204.306 49.6686 194.779C49.5137 194.624 49.5137 194.392 49.5911 194.237L49.6686 194.159C50.2882 192.765 60.1249 163.565 59.2729 157.911C58.9631 155.974 56.562 154.193 53.6962 153.728C51.1402 153.341 49.1264 154.193 48.1969 156.052C45.6409 161.319 36.6562 179.443 29.6078 191.061C29.4529 191.294 29.1431 191.448 28.8333 191.294C28.6009 191.139 28.446 190.829 28.6009 190.519C35.6493 178.901 44.5566 160.854 47.1126 155.587C48.1969 153.341 50.6755 152.256 53.6962 152.721C56.4846 153.108 59.7377 155.045 60.2024 157.756C60.977 162.868 52.6118 189.822 50.598 194.314C58.8857 204.616 60.2024 218.79 54.006 230.408C53.8511 230.64 53.6962 230.718 53.5413 230.718Z" fill="#231F20"/>
<path d="M67.12 48.4487L27.0203 63.053L44.6726 111.522L84.7723 96.9178L67.12 48.4487Z" fill="white"/>
<path d="M67.1735 48.4672L84.8332 96.8763L44.6342 111.515L26.9746 63.1061L67.1735 48.4672ZM67.0961 47.3828C66.9412 47.3828 66.8637 47.3828 66.7088 47.4603L26.5873 62.0992C26.2775 62.1766 26.1226 62.409 25.9677 62.6414C25.8128 62.8737 25.8128 63.1836 25.8902 63.4934L43.5499 111.902C43.6273 112.135 43.8597 112.367 44.0921 112.522C44.247 112.6 44.4019 112.6 44.5568 112.6C44.7117 112.6 44.7891 112.6 44.9441 112.522L85.0655 97.8832C85.6077 97.6508 85.9175 97.0312 85.6852 96.489L68.0255 48.0799C67.9481 47.6926 67.5608 47.3828 67.0961 47.3828Z" fill="#231F20"/>
<path d="M79.6435 82.9346L84.7555 96.9539L44.634 111.515L39.522 97.4961C42.1554 92.1517 47.4998 88.7437 52.302 86.4976C54.1609 85.6456 55.9424 84.9485 57.414 84.4063L57.7238 84.2514C59.118 83.7092 60.822 83.167 62.6034 82.7023H62.6809C67.9478 81.3856 74.2216 80.5336 79.6435 82.9346Z" fill="#F6AD3D"/>
<path d="M63.9204 85.3357L64.9273 99.7423L65.2371 103.925L64.3076 104.235L61.8291 100.827L53.3091 89.2084C55.4778 87.5819 61.0545 85.5681 63.9204 85.3357Z" fill="#231F20"/>
<path d="M59.4277 70.2319C58.8081 67.0562 63.4553 64.5777 64.5397 68.1406C64.927 69.3799 64.927 70.6966 64.4623 71.9359C63.9201 73.1752 62.7583 73.9497 61.4415 73.9497" fill="white"/>
<path d="M61.5966 74.4144H61.3642C61.0544 74.4144 60.822 74.1046 60.822 73.7948C60.822 73.485 61.1318 73.2526 61.4417 73.2526C62.526 73.2526 63.4555 72.633 63.9202 71.6261C64.3075 70.5417 64.3849 69.3799 63.9977 68.2181C63.6104 66.8239 62.6035 66.8239 62.0613 66.9013C60.6671 67.2886 59.8151 68.6053 59.97 69.9995C60.0475 70.3093 59.8151 70.6192 59.5053 70.6192C59.1955 70.6192 58.8857 70.4642 58.8857 70.1544C58.5758 68.1406 59.8151 66.2042 61.8289 65.7395C63.2231 65.3522 64.6948 66.2042 65.082 67.6759C65.082 67.7533 65.082 67.7533 65.082 67.8308C65.5468 69.225 65.4693 70.6966 64.9271 72.0133C64.3075 73.485 63.0682 74.337 61.5966 74.4144Z" fill="#231F20"/>
<path d="M47.1901 74.647C45.641 71.8586 40.4516 72.943 41.9232 76.351C42.388 77.5902 43.3174 78.5197 44.4018 79.1393C45.5636 79.759 46.9578 79.5266 47.9647 78.6746" fill="white"/>
<path d="M45.9508 80.0687C45.3312 80.0687 44.7115 79.9138 44.1693 79.6815C42.9301 78.9844 41.9232 77.9 41.381 76.5833C40.6839 75.344 41.0712 73.7175 42.3879 73.0204C42.4653 73.0204 42.4653 72.9429 42.5428 72.9429C44.4017 72.0909 46.5704 72.7105 47.6548 74.4145C47.8097 74.6469 47.7323 75.0342 47.4224 75.1891C47.1126 75.344 46.8028 75.2666 46.6479 74.9567C45.8733 73.7175 44.3243 73.3302 43.085 73.8724C42.6202 74.1047 41.8457 74.7244 42.4653 76.1186C42.9301 77.2029 43.7046 78.0549 44.7115 78.6745C45.641 79.1393 46.8028 79.0618 47.6548 78.3647C47.8872 78.1324 48.197 78.1324 48.4293 78.3647C48.6617 78.5971 48.6617 78.9069 48.4293 79.1393C47.7322 79.6815 46.8802 80.0687 45.9508 80.0687Z" fill="#231F20"/>
<path d="M53.2314 89.2858C54.9354 90.7574 57.4139 91.1447 59.5052 90.2927C61.7514 89.5181 63.3779 87.6592 63.9201 85.413L59.2728 74.1821L49.6685 77.6676L53.2314 89.2858Z" fill="white"/>
<path d="M57.104 91.2996C55.5549 91.2996 54.0058 90.7575 52.844 89.6731C52.7665 89.5957 52.7665 89.5182 52.6891 89.4407L49.0487 77.8226C48.9713 77.5127 49.1262 77.2029 49.3585 77.1255L58.9629 73.64C59.2727 73.5625 59.5825 73.64 59.66 73.9498L64.3073 85.1807C64.3847 85.2582 64.3847 85.4131 64.3847 85.4906C63.8425 87.9691 62.0611 89.9829 59.5825 90.8349C58.8855 91.0673 57.956 91.2222 57.104 91.2996ZM53.696 88.976C55.2451 90.2153 57.4138 90.5251 59.2727 89.7506C61.2865 89.0535 62.7582 87.4269 63.3004 85.4131L58.8854 74.8793L50.2105 78.0549L53.696 88.976Z" fill="#231F20"/>
<path d="M51.3724 82.5473C52.5343 83.3993 53.851 83.864 55.2452 84.0189C57.5688 84.4062 60.8219 84.5611 62.9906 83.3218L60.8219 78.6746C59.1954 79.5266 57.4914 80.1462 55.7099 80.5335C54.1608 80.9982 52.6117 81.308 50.9852 81.308C50.7528 81.308 50.9077 82.16 51.3724 82.5473Z" fill="#231F20"/>
<path d="M58.4212 84.8709C57.3368 84.8709 56.2525 84.7934 55.1681 84.561C53.6964 84.4061 52.3023 83.8639 51.063 82.9345C50.5208 82.5472 50.2884 81.8501 50.4434 81.153C50.5208 80.8432 50.8306 80.6883 51.1404 80.6883C52.6895 80.6883 54.2386 80.456 55.7103 79.9912C57.4143 79.604 59.1183 78.9843 60.6674 78.1323C60.8223 78.0549 60.9772 78.0549 61.1321 78.1323C61.287 78.2098 61.3644 78.2872 61.4419 78.4421L63.6106 83.0894C63.7655 83.3218 63.6106 83.6316 63.3783 83.7865C61.7517 84.561 60.0477 84.8709 58.4212 84.8709ZM51.5277 81.8501C51.6052 81.9276 51.6052 82.005 51.6826 82.0825C52.767 82.857 54.0063 83.3218 55.2455 83.4767C56.6397 83.709 59.8928 84.0963 62.2164 83.0894L60.5124 79.3716C58.9634 80.0687 57.4143 80.6883 55.7877 81.0756C54.471 81.5403 52.9993 81.7727 51.5277 81.8501Z" fill="#231F20"/>
<path d="M56.2521 81.6178L57.0266 81.308C60.8219 79.9138 62.7583 75.8087 61.3641 72.0134L57.4139 61.2472C51.9921 58.8462 45.6408 61.1698 43.0073 66.5142L46.9575 77.2804C48.2742 81.0756 52.4568 83.012 56.2521 81.6178Z" fill="white"/>
<path d="M53.0768 60.3177C54.5484 60.3177 56.0975 60.6275 57.4142 61.3246L61.3644 72.0908C62.7586 75.8861 60.8222 79.9912 57.027 81.3854L56.2524 81.6952C55.4779 82.005 54.6259 82.1599 53.7739 82.1599C50.7532 82.1599 48.0422 80.2236 46.9579 77.4352L43.0077 66.669C44.1695 64.0355 46.4157 62.0217 49.1266 61.1697C50.4433 60.5501 51.7601 60.3177 53.0768 60.3177ZM53.0768 59.2334C51.6051 59.2334 50.1335 59.4657 48.7393 60.0079C43.4724 61.9443 42.0008 66.0494 41.9233 66.2043C41.8459 66.4366 41.8459 66.7465 41.9233 66.9788L45.8735 77.745C47.4226 82.0825 52.2248 84.3286 56.5622 82.7021L57.3368 82.3923C61.6742 80.8432 63.9204 76.041 62.2939 71.7035L58.3437 60.9374C58.2662 60.705 58.1113 60.4726 57.879 60.3177C56.4848 59.5432 54.7808 59.1559 53.0768 59.2334Z" fill="#231F20"/>
<path d="M49.6687 110.276C49.4363 110.276 49.2814 110.121 49.2039 109.966L43.7047 98.6579C43.5497 98.4255 43.6272 98.0383 43.937 97.8834C43.937 97.8834 43.937 97.8834 44.0145 97.8834C44.2468 97.7285 44.6341 97.8059 44.789 98.1157L50.2883 109.424C50.4432 109.734 50.2883 110.044 50.0559 110.199C49.8236 110.199 49.7461 110.276 49.6687 110.276Z" fill="#231F20"/>
<path d="M79.7985 99.2774C79.5662 99.2774 79.3338 99.1225 79.2563 98.8901L76.1582 86.7298C76.0807 86.42 76.2356 86.1101 76.5454 86.0327C76.8553 85.9552 77.1651 86.1101 77.2425 86.42L80.3407 98.5803C80.4182 98.8901 80.2633 99.2 79.9534 99.2774C79.876 99.2774 79.7985 99.2774 79.7985 99.2774Z" fill="#231F20"/>
<path d="M46.2606 75.8861C45.2537 72.4781 43.4722 68.4504 44.0144 67.521C44.5566 66.5915 45.2537 67.521 45.7959 66.514C46.3381 65.5071 45.8733 65.4297 45.8733 65.4297C45.8733 65.4297 48.2744 63.5708 49.5912 63.3384C50.9079 63.1061 53.9286 62.9511 55.0904 61.3246C55.0904 61.3246 58.0337 63.1061 58.6533 64.5002C59.273 65.8944 60.2799 69.922 60.5897 69.7671C60.8995 69.6122 61.4417 65.9719 61.2868 64.2679C60.977 61.1697 58.6533 58.6137 55.5552 58.1489C55.5552 58.1489 55.1679 56.3675 50.753 56.8322C46.3381 57.297 42.5428 60.2402 41.7682 61.9442C40.8388 64.4228 40.6839 67.1337 41.381 69.7671C42.0006 71.7035 42.7752 71.7035 42.7752 71.7035L46.2606 75.8861Z" fill="white"/>
<path d="M46.2604 76.4284C46.1054 76.4284 45.9505 76.351 45.7956 76.2735L42.3102 72.1684C41.9229 72.0135 41.2258 71.5488 40.6836 69.9222C39.9865 67.2113 40.1414 64.3455 41.1484 61.712C42.0778 59.7757 45.9505 56.7549 50.5978 56.2902C54.3156 55.9029 55.4775 57.0648 55.8647 57.6844C59.0404 58.304 61.4415 61.0149 61.7513 64.268C61.8287 65.12 61.5189 69.7673 60.7444 70.232C60.5895 70.3095 60.4345 70.3095 60.2022 70.3095C59.8149 70.1546 59.66 69.8448 58.8854 67.2888C58.5756 66.3593 58.2658 65.3524 58.0335 64.8102C57.6462 63.9582 56.0971 62.7964 55.0902 62.1768C53.8509 63.416 51.6047 63.7259 50.2105 63.9582L49.5909 64.0357C48.5065 64.4229 47.4222 64.9651 46.4927 65.7397C46.4927 66.2044 46.4153 66.5917 46.1829 66.979C45.9505 67.5211 45.4084 67.8309 44.7887 67.8309C44.5564 67.8309 44.4789 67.831 44.4014 67.9859C44.1691 68.4506 45.0985 71.1615 45.7182 72.943C46.028 73.9499 46.4153 74.9568 46.7251 75.8862C46.8025 76.1186 46.7251 76.4284 46.4927 76.5059C46.4153 76.4284 46.3378 76.4284 46.2604 76.4284ZM42.6974 71.084C42.8524 71.084 42.9298 71.1615 43.0073 71.239L44.7887 73.3302C44.7887 73.2528 44.7113 73.1753 44.7113 73.1753C43.5494 69.8448 43.0073 68.0633 43.472 67.2888C43.7044 66.824 44.2465 66.5142 44.7887 66.5917C45.0985 66.5917 45.0985 66.5917 45.2534 66.3593C45.3309 66.2044 45.4084 66.0495 45.4084 65.8946C45.3309 65.8171 45.2534 65.7397 45.2534 65.5848C45.176 65.3524 45.2534 65.1975 45.4858 65.0426C45.7182 64.8102 48.0418 63.1062 49.436 62.7964L50.0556 62.7189C51.3724 62.564 53.6185 62.1768 54.548 61.0149C54.7029 60.7826 55.0902 60.7051 55.3225 60.86C55.6324 61.0149 58.4207 62.7189 59.0404 64.268C59.2727 64.8877 59.5825 65.8946 59.8924 66.9015C59.9698 67.2888 60.1247 67.676 60.2796 68.0633C60.512 66.824 60.5895 65.5848 60.5895 64.3455C60.3571 61.4797 58.1884 59.156 55.3225 58.7688C55.0902 58.7688 54.9353 58.5364 54.8578 58.3815C54.8578 58.3815 54.3931 57.1422 50.5978 57.452C46.2604 57.9168 42.6974 60.7826 42.0004 62.2542C41.1484 64.6553 40.9934 67.2113 41.6131 69.6124C42.2327 70.9291 42.6974 71.084 42.6974 71.084Z" fill="#231F20"/>
</svg>
