<svg width="256" height="269" viewBox="0 0 256 269" fill="none" xmlns="http://www.w3.org/2000/svg">
<circle cx="128" cy="138.491" r="128" fill="white" fill-opacity="0.5"/>
<path d="M36.6759 19.8905L160.539 2.48272C165.559 1.77714 170.174 5.25481 170.88 10.2753L203.084 239.418C203.79 244.439 200.312 249.054 195.291 249.759L71.4284 267.167C66.4079 267.873 61.7929 264.395 61.0873 259.375L28.8729 30.1567C28.1778 25.2111 31.6555 20.5961 36.6759 19.8905Z" fill="white"/>
<path d="M195.279 250.219L71.4912 267.616C66.2459 268.353 61.2996 264.693 60.5519 259.373L28.348 30.23C27.6108 24.9847 31.2817 20.1133 36.5913 19.2907L160.379 1.89341C165.625 1.15624 170.496 4.82711 171.319 10.1368L203.523 239.28C204.26 244.525 200.6 249.471 195.279 250.219ZM36.7388 20.3398C32.018 21.0032 28.7336 25.3618 29.397 30.0826L61.601 259.225C62.2644 263.946 66.623 267.231 71.3438 266.567L195.132 249.17C199.853 248.506 203.137 244.148 202.474 239.427L170.27 10.2842C169.606 5.56348 165.248 2.27901 160.527 2.94247L36.7388 20.3398Z" fill="#231F20"/>
<path d="M166.003 27.7712L38.918 45.6318L65.9617 238.058L193.047 220.197L166.003 27.7712Z" fill="#99B9E3"/>
<path d="M144.12 248.851L123.289 251.778C120.741 252.136 118.348 250.333 117.99 247.785L117.243 242.465C116.884 239.917 118.688 237.524 121.235 237.166L142.067 234.239C144.614 233.881 147.007 235.684 147.365 238.232L148.113 243.552C148.396 246.11 146.668 248.493 144.12 248.851ZM121.383 238.215C119.36 238.5 118.018 240.369 118.292 242.318L119.039 247.638C119.324 249.661 121.193 251.003 123.142 250.729L143.973 247.802C145.996 247.517 147.338 245.648 147.064 243.699L146.316 238.379C146.032 236.356 144.162 235.014 142.214 235.288L121.383 238.215Z" fill="#D1D3D4"/>
<path d="M110.989 22.8945L74.7967 27.981C74.497 28.0231 74.2406 27.8299 74.1985 27.5301C74.1563 27.2304 74.3496 26.974 74.6493 26.9319L110.842 21.8454C111.141 21.8033 111.398 21.9965 111.44 22.2962C111.482 22.5959 111.289 22.8523 110.989 22.8945Z" fill="#D1D3D4"/>
<path d="M120.955 21.4939L116.084 22.1785C115.784 22.2206 115.528 22.0274 115.486 21.7276C115.444 21.4279 115.637 21.1715 115.937 21.1294L120.807 20.4449C121.107 20.4028 121.363 20.596 121.405 20.8957C121.448 21.1954 121.254 21.4518 120.955 21.4939Z" fill="#D1D3D4"/>
<path d="M106.981 180.867L101.204 175.108L105.476 174.508L108.838 178.314L111.32 173.686L115.292 173.128L111.402 180.246L118.075 186.95L113.878 187.539L109.501 183.035L106.535 188.571L102.414 189.151L106.981 180.867Z" fill="#231F20"/>
<path d="M119.282 183.036L126.205 174.116L126.849 173.261C127.042 173.005 127.225 172.674 127.408 172.342C127.59 172.011 127.698 171.69 127.806 171.369C127.913 171.049 127.936 170.663 127.894 170.364C127.841 169.989 127.713 169.625 127.511 169.271C127.319 168.993 127.052 168.724 126.721 168.542C126.389 168.359 126.058 168.176 125.673 168.154C125.277 168.057 124.892 168.035 124.528 168.162C123.703 168.278 122.986 168.608 122.46 169.217C121.934 169.826 121.665 170.628 121.695 171.388L117.982 171.604C117.93 170.694 118.039 169.838 118.298 168.961C118.578 168.234 119.007 167.486 119.544 166.952C120.069 166.344 120.766 165.864 121.484 165.534C122.277 165.193 123.155 164.917 124.054 164.79C124.953 164.664 125.873 164.687 126.729 164.796C127.51 164.916 128.312 165.185 128.975 165.551C129.637 165.916 130.257 166.517 130.651 167.149C131.142 167.92 131.418 168.799 131.544 169.698C131.713 170.897 131.571 172.063 131.119 173.196C130.581 174.265 129.959 175.269 129.25 176.21L123.713 183.024L133.304 181.676L133.746 184.824L119.884 186.772L119.357 183.025L119.282 183.036Z" fill="#231F20"/>
<path d="M135.055 174.018C134.855 172.595 134.741 171.235 134.84 169.769C134.918 168.689 135.08 167.673 135.478 166.7C135.758 165.973 136.113 165.235 136.639 164.626C137.025 164.113 137.572 163.655 138.14 163.346C138.633 163.047 139.136 162.823 139.65 162.675C140.089 162.537 140.529 162.399 140.978 162.335C141.428 162.272 141.888 162.284 142.348 162.296C142.883 162.297 143.504 162.363 143.985 162.524C144.626 162.74 145.193 162.966 145.781 163.341C146.454 163.782 146.998 164.393 147.468 165.015C148.044 165.851 148.555 166.772 148.927 167.79C149.842 170.488 150.242 173.336 150.107 176.182C150.03 177.263 149.867 178.279 149.469 179.252C149.189 179.979 148.834 180.716 148.308 181.325C147.922 181.838 147.375 182.297 146.807 182.606C146.314 182.904 145.811 183.128 145.297 183.277C144.858 183.415 144.408 183.478 143.969 183.616C143.519 183.679 143.059 183.668 142.599 183.656C142.064 183.655 141.444 183.589 140.962 183.427C140.321 183.212 139.754 182.986 139.166 182.61C138.493 182.17 137.949 181.559 137.479 180.937C136.903 180.101 136.392 179.179 136.02 178.162C135.53 176.855 135.255 175.442 135.055 174.018ZM138.577 173.523C138.682 174.273 138.863 175.011 139.043 175.75C139.234 176.564 139.499 177.367 139.904 178.074C140.234 178.792 140.768 179.328 141.377 179.854C142.723 180.735 144.522 180.482 145.573 179.264C146.024 178.666 146.379 177.929 146.498 177.148C146.693 176.356 146.727 175.511 146.686 174.676C146.625 173.156 146.415 171.658 146.054 170.18C145.863 169.366 145.523 168.574 145.193 167.856C144.862 167.138 144.318 166.527 143.72 166.076C142.373 165.196 140.575 165.448 139.524 166.666C139.073 167.264 138.718 168.002 138.598 168.783C138.404 169.574 138.37 170.42 138.411 171.254C138.452 172.089 138.482 172.849 138.577 173.523Z" fill="#231F20"/>
<path d="M158.396 45.956C161.169 45.5663 163.101 43.0026 162.711 40.2299C162.321 37.4572 159.758 35.5253 156.985 35.915C154.212 36.3047 152.28 38.8683 152.67 41.6411C153.06 44.4138 155.623 46.3456 158.396 45.956Z" fill="white"/>
<path d="M160.565 61.3922C163.338 61.0025 165.27 58.4389 164.88 55.6662C164.491 52.8935 161.927 50.9616 159.154 51.3513C156.382 51.741 154.45 54.3046 154.839 57.0773C155.229 59.8501 157.793 61.7819 160.565 61.3922Z" fill="white"/>
<path d="M162.735 76.8285C165.508 76.4388 167.44 73.8752 167.05 71.1025C166.66 68.3297 164.097 66.3979 161.324 66.7876C158.551 67.1773 156.619 69.7409 157.009 72.5136C157.399 75.2863 159.962 77.2182 162.735 76.8285Z" fill="white"/>
<path d="M54.8931 51.1042L45.8263 52.3784C45.5266 52.4206 45.3346 52.1419 45.2924 51.8422C45.2608 51.6174 45.454 51.361 45.6788 51.3294L54.7456 50.0551C55.0454 50.013 55.2912 50.1313 55.4083 50.4205C55.4504 50.7202 55.3321 50.9661 55.043 51.0831C54.968 51.0937 54.968 51.0937 54.8931 51.1042Z" fill="white"/>
<path d="M48.2494 55.4762C48.0995 55.4973 47.9391 55.4434 47.8537 55.379L44.393 52.5032C44.2116 52.2995 44.18 52.0747 44.2982 51.8289L46.865 47.8003C47.0687 47.6189 47.3684 47.5767 47.5394 47.7055C47.7103 47.8344 47.7524 48.1341 47.6985 48.2945L45.3789 51.9062L48.4977 54.5244C48.7435 54.6427 48.7962 55.0173 48.6674 55.1882C48.6674 55.1882 48.6674 55.1882 48.603 55.2737C48.5491 55.4341 48.3993 55.4552 48.2494 55.4762Z" fill="white"/>
<path d="M86.0741 202.833L165.877 191.617C170.523 190.964 174.796 194.184 175.449 198.83L175.744 200.928C176.397 205.574 173.177 209.847 168.531 210.5L88.7279 221.716C84.0821 222.369 79.8089 219.149 79.156 214.503L78.8611 212.405C78.2082 207.759 81.4283 203.486 86.0741 202.833Z" fill="white"/>
<path d="M117.061 204.744C116.88 204.54 116.623 204.347 116.313 204.314C116.003 204.281 115.767 204.238 115.468 204.28C115.318 204.301 115.093 204.333 114.954 204.428C114.814 204.524 114.664 204.546 114.536 204.716C114.396 204.812 114.342 204.973 114.289 205.133C114.235 205.294 114.181 205.454 114.212 205.679C114.244 205.904 114.361 206.193 114.607 206.311C114.853 206.429 115.099 206.548 115.409 206.58C115.719 206.613 116.04 206.721 116.425 206.743C116.81 206.766 117.131 206.873 117.462 207.056C117.794 207.239 118.05 207.432 118.317 207.7C118.594 208.043 118.733 208.482 118.785 208.857C118.848 209.306 118.826 209.692 118.729 210.087C118.621 210.408 118.439 210.739 118.17 211.006C117.902 211.273 117.549 211.476 117.27 211.668C116.916 211.87 116.467 211.933 116.092 211.986C115.568 212.06 115.033 212.059 114.551 211.897C114.006 211.821 113.514 211.584 113.151 211.177L114.117 209.895C114.309 210.174 114.64 210.356 114.961 210.464C115.282 210.572 115.592 210.605 115.967 210.552C116.117 210.531 116.342 210.499 116.481 210.403C116.62 210.307 116.76 210.211 116.899 210.115C117.038 210.019 117.167 209.848 117.221 209.688C117.275 209.528 117.329 209.367 117.297 209.142C117.255 208.843 117.138 208.553 116.892 208.435C116.646 208.317 116.4 208.199 116.08 208.091C115.769 208.058 115.449 207.95 115.063 207.928C114.678 207.906 114.357 207.798 114.026 207.615C113.695 207.433 113.438 207.239 113.171 206.971C112.894 206.628 112.756 206.189 112.703 205.815C112.651 205.44 112.662 204.98 112.845 204.648C112.953 204.328 113.21 203.986 113.403 203.729C113.672 203.462 114.025 203.26 114.389 203.132C115.182 202.792 116.006 202.676 116.873 202.86C117.343 202.946 117.75 203.119 118.091 203.376L117.061 204.744Z" fill="#D1D3D4"/>
<path d="M119.314 206.642L119.146 205.443L120.345 205.275L120.113 203.626L121.537 203.426L121.768 205.075L123.342 204.853L123.51 206.052L121.937 206.274L122.295 208.821C122.327 209.046 122.433 209.26 122.54 209.475C122.721 209.678 122.956 209.722 123.246 209.605C123.395 209.583 123.545 209.562 123.685 209.466C123.834 209.445 123.899 209.36 124.038 209.264L124.207 210.463C124.067 210.559 123.853 210.665 123.628 210.697C123.404 210.729 123.264 210.825 123.039 210.856C122.74 210.898 122.365 210.951 122.044 210.843C121.809 210.8 121.563 210.682 121.392 210.553C121.211 210.349 121.115 210.21 120.998 209.92C120.881 209.631 120.838 209.332 120.796 209.032L120.417 206.334L119.314 206.642Z" fill="#D1D3D4"/>
<path d="M128.832 209.125C128.65 209.457 128.392 209.799 128.114 209.991C127.835 210.183 127.471 210.31 127.096 210.363C126.871 210.394 126.561 210.362 126.336 210.393C126.101 210.35 125.866 210.307 125.62 210.188C125.374 210.07 125.203 209.941 125.096 209.727C124.915 209.523 124.798 209.234 124.841 208.999C124.799 208.699 124.842 208.464 124.875 208.153C124.919 207.918 125.112 207.662 125.241 207.491C125.444 207.309 125.648 207.128 125.862 207.021C126.077 206.915 126.366 206.798 126.58 206.691C126.869 206.574 127.094 206.542 127.394 206.5L128.143 206.395L128.518 206.342L128.497 206.193C128.455 205.893 128.263 205.614 128.006 205.421C127.675 205.238 127.365 205.205 126.99 205.258C126.69 205.3 126.401 205.417 126.187 205.524C125.972 205.63 125.694 205.822 125.576 206.068L124.721 205.424C124.968 205.007 125.311 204.73 125.74 204.517C126.168 204.304 126.607 204.166 127.057 204.103C127.431 204.05 127.742 204.083 128.127 204.105C128.362 204.148 128.683 204.256 128.854 204.385C129.025 204.514 129.196 204.642 129.377 204.846C129.473 204.986 129.58 205.2 129.686 205.414C129.782 205.553 129.814 205.778 129.845 206.003C129.867 206.153 129.898 206.378 129.909 206.453L130.383 209.825L129.034 210.014L128.832 209.125ZM128.505 207.338L128.205 207.38L127.531 207.474C127.306 207.506 127.092 207.613 126.802 207.73C126.588 207.836 126.449 207.932 126.245 208.114C126.116 208.285 126.062 208.445 126.094 208.67C126.115 208.82 126.126 208.895 126.222 209.034C126.307 209.098 126.392 209.163 126.478 209.227C126.563 209.291 126.724 209.345 126.799 209.335C126.949 209.314 127.034 209.378 127.184 209.357C127.559 209.304 127.998 209.166 128.255 208.824C128.448 208.568 128.546 208.172 128.493 207.798L128.505 207.338Z" fill="#D1D3D4"/>
<path d="M131.049 203.694L132.473 203.494L132.61 204.468C132.717 204.148 132.9 203.816 133.179 203.624C133.457 203.432 133.811 203.23 134.186 203.177C134.261 203.167 134.336 203.156 134.485 203.135L134.796 203.168L134.996 204.591L134.611 204.569C134.461 204.59 134.386 204.601 134.236 204.622C133.936 204.664 133.647 204.781 133.433 204.888C133.218 204.994 133.09 205.165 133.046 205.4C132.992 205.561 132.939 205.721 132.885 205.882C132.906 206.031 132.841 206.117 132.862 206.267L133.305 209.414L131.881 209.614L131.049 203.694Z" fill="#D1D3D4"/>
<path d="M135.2 204.41L135.032 203.211L136.231 203.042L135.999 201.394L137.423 201.194L137.655 202.842L139.228 202.621L139.397 203.82L137.823 204.041L138.181 206.589C138.213 206.814 138.319 207.028 138.426 207.242C138.607 207.446 138.843 207.489 139.132 207.372C139.282 207.351 139.432 207.33 139.506 207.319C139.656 207.298 139.721 207.213 139.86 207.117L140.029 208.316C139.889 208.412 139.675 208.518 139.45 208.55C139.225 208.582 139.086 208.678 138.861 208.709C138.561 208.751 138.187 208.804 137.866 208.696C137.631 208.653 137.385 208.535 137.214 208.406C137.032 208.202 136.936 208.063 136.819 207.774C136.702 207.484 136.66 207.185 136.618 206.885L136.239 204.187L135.2 204.41Z" fill="#D1D3D4"/>
<path d="M240.032 235.696C238.897 235.696 237.989 234.788 237.989 233.653V205.505C238.14 198.694 232.768 193.019 225.958 192.868C219.148 192.717 213.472 198.089 213.321 204.899C213.321 205.126 213.321 205.278 213.321 205.505V233.653C213.397 234.788 212.564 235.772 211.429 235.848C210.294 235.923 209.311 235.091 209.235 233.956C209.235 233.88 209.235 233.805 209.235 233.729V205.58C209.008 196.5 216.196 189.009 225.277 188.858C234.357 188.631 241.848 195.819 241.999 204.899C241.999 205.126 241.999 205.353 241.999 205.58V233.729C242.075 234.713 241.167 235.696 240.032 235.696Z" fill="#231F20"/>
<path d="M225.655 209.515C208.857 209.515 195.312 223.136 195.312 239.859C195.312 246.744 197.582 253.403 201.895 258.7C201.971 258.851 202.122 258.927 202.274 258.927H249.037C249.188 258.927 249.34 258.851 249.415 258.7C253.728 253.328 256.074 246.669 255.999 239.783C255.999 223.06 242.454 209.515 225.655 209.515Z" fill="#231F20"/>
<path d="M217.105 235.924H213.7V237.286C213.927 237.21 214.23 237.21 214.457 237.21C214.835 237.21 215.289 237.286 215.668 237.437C216.046 237.588 216.349 237.74 216.651 238.042C216.954 238.269 217.105 238.572 217.257 238.95C217.408 239.329 217.484 239.707 217.484 240.161C217.484 240.615 217.408 241.069 217.257 241.447C217.105 241.826 216.878 242.128 216.576 242.431C216.273 242.734 215.895 242.885 215.516 243.036C215.062 243.188 214.684 243.263 214.23 243.263C213.549 243.263 212.868 243.112 212.338 242.734C211.808 242.355 211.43 241.75 211.279 241.069L213.171 240.615C213.246 240.918 213.322 241.145 213.549 241.372C213.776 241.599 214.079 241.674 214.306 241.674C214.684 241.674 214.987 241.523 215.214 241.296C215.441 241.069 215.592 240.691 215.592 240.388C215.592 240.161 215.516 239.858 215.441 239.707C215.289 239.556 215.138 239.404 214.987 239.253C214.76 239.177 214.533 239.102 214.306 239.026C214.079 238.95 213.852 238.95 213.625 238.95C213.322 238.95 213.019 238.95 212.717 239.026C212.414 239.102 212.111 239.177 211.808 239.253L211.884 234.486H217.105V235.924Z" fill="white"/>
<path d="M222.553 234.334H224.445V237.966L227.85 234.334H230.347L226.488 238.344L230.65 242.96H228.001L224.445 238.874V242.96H222.553V234.334Z" fill="white"/>
<path d="M239.2 242.355C238.67 242.657 238.065 242.885 237.459 242.96C236.854 243.112 236.249 243.187 235.568 243.187C234.962 243.187 234.281 243.112 233.676 242.885C233.146 242.657 232.617 242.355 232.163 241.976C231.709 241.598 231.406 241.068 231.179 240.539C230.952 239.933 230.801 239.328 230.801 238.647C230.801 237.966 230.876 237.361 231.179 236.755C231.406 236.226 231.709 235.696 232.163 235.318C232.617 234.939 233.146 234.637 233.676 234.41C234.281 234.183 234.887 234.107 235.568 234.107C236.249 234.107 236.854 234.183 237.459 234.334C237.989 234.485 238.519 234.788 238.973 235.166L237.611 236.604C237.384 236.377 237.081 236.15 236.703 235.999C236.324 235.847 235.87 235.772 235.492 235.772C235.114 235.772 234.735 235.847 234.357 235.999C234.054 236.15 233.752 236.301 233.525 236.604C233.298 236.831 233.071 237.134 232.995 237.512C232.768 238.269 232.768 239.025 232.995 239.782C233.146 240.085 233.298 240.387 233.525 240.69C233.752 240.917 234.054 241.144 234.357 241.295C234.735 241.447 235.114 241.522 235.492 241.522C235.87 241.522 236.249 241.447 236.551 241.371C236.778 241.295 237.081 241.22 237.308 241.068V239.631H235.719V237.89H239.124L239.2 242.355Z" fill="white"/>
<path d="M146.241 148.166C144.292 139.194 142.682 132.085 141.841 129.911L105.603 136.303C105.603 136.303 105.854 143.527 106.302 153.779L146.241 148.166Z" fill="#231F20"/>
<path d="M146.315 148.691L106.376 154.304C106.226 154.325 106.066 154.271 105.98 154.206C105.895 154.142 105.799 154.003 105.778 153.853C105.266 143.686 105.09 136.451 105.079 136.376C105.047 136.151 105.241 135.895 105.465 135.863L141.693 129.397C141.918 129.365 142.164 129.483 142.27 129.698C143.004 131.658 144.488 137.868 146.68 148.028C146.701 148.178 146.647 148.338 146.583 148.424C146.604 148.574 146.465 148.67 146.315 148.691ZM106.828 153.17L145.718 147.705C143.738 138.508 142.306 132.673 141.605 130.402L106.191 136.678C106.198 138.358 106.408 144.748 106.828 153.17Z" fill="#231F20"/>
<path d="M161.2 153.476C165.049 152.935 167.73 149.377 167.189 145.528C166.648 141.68 163.09 138.998 159.241 139.539C155.392 140.08 152.711 143.638 153.252 147.487C153.793 151.336 157.351 154.017 161.2 153.476Z" fill="#231F20"/>
<path d="M161.274 154.001C157.152 154.58 153.306 151.682 152.727 147.561C152.148 143.439 155.046 139.593 159.167 139.014C163.289 138.435 167.134 141.333 167.714 145.454C168.293 149.576 165.47 153.411 161.274 154.001ZM159.315 140.063C155.718 140.569 153.281 143.891 153.776 147.413C154.271 150.935 157.604 153.447 161.126 152.952C164.723 152.446 167.16 149.124 166.665 145.602C166.234 141.995 162.911 139.558 159.315 140.063Z" fill="#231F20"/>
<path d="M133.137 79.9382C133.137 79.9382 143.626 78.9989 147.431 95.1984C147.431 95.1984 157.829 111.006 160.566 121.243C163.304 131.479 163.155 135.856 164.241 138.148C165.328 140.441 167.898 144.053 167.721 146.6C167.544 149.146 162.455 152.077 160.455 151.441C158.455 150.805 155.133 143.478 156.802 139.041L135.243 104.17C135.233 104.096 133.196 81.9929 133.137 79.9382Z" fill="white"/>
<path d="M161.674 151.958C161.225 152.021 160.765 152.009 160.283 151.848C159 151.417 157.86 149.285 157.434 148.428C156.241 145.921 155.233 142.013 156.193 139.05L134.74 104.394C134.73 104.319 134.644 104.255 134.709 104.169C134.583 103.27 132.672 82.0667 132.602 79.937C132.635 79.6268 132.839 79.4453 133.064 79.4137C133.139 79.4032 144.034 78.636 147.935 94.9749C148.714 96.1645 158.471 111.222 161.081 121.094C162.185 125.142 163.064 129.221 163.718 133.332C163.864 134.916 164.225 136.393 164.735 137.85C164.969 138.428 165.374 139.136 165.779 139.843C167.005 142.039 168.347 144.525 168.247 146.526C168.115 147.767 167.02 149.22 165.199 150.393C164.159 151.15 162.938 151.704 161.674 151.958ZM135.737 103.872L157.285 138.668C157.381 138.807 157.402 138.957 157.348 139.117C156.347 141.78 157.334 145.538 158.43 147.905C159.293 149.695 160.115 150.649 160.671 150.8C161.473 151.069 163.154 150.527 164.698 149.546C166.241 148.565 167.217 147.358 167.316 146.427C167.459 144.726 166.127 142.316 165.007 140.333C164.592 139.551 164.187 138.844 163.878 138.276C163.282 136.755 162.9 135.128 162.744 133.469C162.09 129.358 161.211 125.279 160.117 121.306C157.411 111.294 147.174 95.5404 147.003 95.4116C146.993 95.3366 146.918 95.3472 146.907 95.2722C143.695 81.6637 135.811 80.4794 133.661 80.3996C133.887 84.1883 135.58 102.213 135.737 103.872Z" fill="#231F20"/>
<path d="M72.1114 101.887C73.8495 101.643 74.7776 98.0229 74.1844 93.8017C73.5912 89.5805 71.7012 86.3566 69.9631 86.6009C68.2249 86.8452 67.2968 90.4651 67.8901 94.6863C68.4833 98.9075 70.3733 102.131 72.1114 101.887Z" fill="#231F20"/>
<path d="M72.1852 102.411C70.0871 102.706 68.0186 99.4055 67.3657 94.7597C66.7127 90.1139 67.7913 86.3709 69.8894 86.076C71.9876 85.7812 74.0561 89.0818 74.709 93.7276C75.3619 98.3734 74.2833 102.116 72.1852 102.411ZM70.0369 87.1251C68.763 87.3041 67.75 90.4265 68.3503 94.6977C68.9506 98.9688 70.785 101.691 72.0588 101.512C73.3327 101.333 74.3457 98.2106 73.7454 93.9395C73.1452 89.6683 71.3107 86.946 70.0369 87.1251Z" fill="#231F20"/>
<path d="M61.4718 103.382C63.2099 103.138 64.138 99.518 63.5447 95.2968C62.9515 91.0756 61.0615 87.8517 59.3234 88.096C57.5853 88.3403 56.6572 91.9603 57.2504 96.1814C57.8437 100.403 59.7336 103.626 61.4718 103.382Z" fill="#231F20"/>
<path d="M61.5451 103.907C59.447 104.201 57.3784 100.901 56.7255 96.255C56.0726 91.6092 57.1512 87.8663 59.2493 87.5714C61.3474 87.2765 63.416 90.5772 64.0689 95.223C64.7218 99.8688 63.5683 103.622 61.5451 103.907ZM59.3967 88.6204C58.1229 88.7995 57.1099 91.9219 57.7102 96.193C58.3104 100.464 60.1449 103.186 61.4187 103.007C62.6926 102.828 63.7056 99.706 63.1053 95.4348C62.505 91.1637 60.5957 88.4519 59.3967 88.6204Z" fill="#231F20"/>
<path d="M70.0386 86.59L59.3232 88.0959L61.4821 103.457L72.1974 101.951L70.0386 86.59Z" fill="#231F20"/>
<path d="M72.1858 102.411L61.4704 103.917C61.1707 103.959 60.9893 103.756 60.8827 103.541L58.7239 88.1803C58.6817 87.8806 58.875 87.6242 59.1747 87.582L69.89 86.0761C70.1897 86.034 70.4461 86.2272 70.4882 86.5269L72.6471 101.888C72.6892 102.188 72.4855 102.369 72.1858 102.411ZM61.8581 102.869L71.5243 101.511L69.5129 87.1989L59.8466 88.5574L61.8581 102.869Z" fill="#231F20"/>
<path d="M93.5851 89.3937L69.9814 92.7109L70.5291 96.6074L94.1327 93.2901L93.5851 89.3937Z" fill="#231F20"/>
<path d="M94.2065 93.815L70.6029 97.1323C70.3031 97.1744 70.0468 96.9812 70.0046 96.6815L69.457 92.785C69.4149 92.4853 69.6081 92.2289 69.9078 92.1868L93.5115 88.8695C93.8112 88.8274 94.0676 89.0206 94.1097 89.3203L94.6573 93.2168C94.6995 93.5165 94.5063 93.7729 94.2065 93.815ZM70.9156 96.095L93.5451 92.9146L93.1344 89.9923L70.5048 93.1726L70.9156 96.095Z" fill="#231F20"/>
<path d="M95.5758 89.4193C93.4096 91.4048 89.6707 97.9668 88.2992 103.432C87.9481 102.564 87.6824 101.761 87.3523 101.044C87.3523 101.044 88.0445 97.8133 87.0529 96.1952C86.0614 94.5771 86.2291 91.4206 85.6321 90.4347C85.035 89.4489 83.2917 89.0062 82.8583 91.3594C82.8583 91.3594 82.5319 89.0365 81.237 89.0657C80.552 89.0856 80.0158 89.6194 80.0356 90.3043C80.0356 90.3043 80.0356 90.3043 80.0462 90.3792C80.0462 90.3792 79.9222 88.4099 78.1988 88.6522C76.4753 88.8944 76.4834 90.0394 76.4834 90.0394C76.4834 90.0394 75.485 86.7412 73.8657 88.2678C72.2463 89.7944 72.431 93.2834 72.4918 94.8031C72.5525 96.3228 78.748 101.259 79.2057 102.341C79.6634 103.423 80.5294 122.634 82.1447 127.603C83.76 132.572 87.3458 136.882 92.2492 135.887C97.1526 134.892 101.529 120.905 101.529 120.905L95.5758 89.4193Z" fill="white"/>
<path d="M91.9271 136.315C86.6069 137.062 83.0118 132.142 81.6095 127.602C80.6322 124.454 79.9562 115.838 79.4462 109.491C79.2182 106.237 78.8941 102.844 78.756 102.405C78.0302 101.59 77.2294 100.786 76.4287 99.9811C73.7805 97.4496 72.0081 95.712 71.9356 94.6524C71.8327 92.833 71.648 89.344 73.4816 87.7109C73.8785 87.273 74.5424 87.1033 75.0985 87.2544C75.7506 87.5448 76.2739 88.0061 76.5186 88.6595C77.001 88.286 77.5045 88.0624 78.1039 87.9782C78.6284 87.9045 79.2595 88.045 79.6868 88.367C79.8577 88.4958 79.9537 88.6352 80.1352 88.8389C80.4783 88.5614 80.8424 88.4339 81.3025 88.4456C82.0729 88.4902 82.7566 89.0054 83.0118 89.7336C83.2694 89.3918 83.623 89.1892 83.9976 89.1366C84.8219 89.0207 85.7093 89.3545 86.1249 90.1366C86.4655 90.9293 86.7313 91.7325 86.7827 92.6422C86.8657 93.7767 87.1736 94.8796 87.6207 95.8866C88.6017 97.4298 88.1566 100.243 88.0371 101.024C88.1541 101.313 88.2607 101.528 88.3777 101.817C89.9622 96.7801 93.2819 91.0411 95.3732 89.0661C95.5125 88.9701 95.7373 88.9385 95.8977 88.9924C96.0581 89.0463 96.229 89.1751 96.2606 89.3999L102.203 120.811C102.214 120.886 102.224 120.961 102.16 121.046C101.934 121.613 97.6758 135.354 92.4727 136.391L91.9271 136.315ZM74.636 88.3128C74.4861 88.3338 74.2718 88.4403 74.218 88.6007C72.7918 89.8709 72.9555 93.2101 72.9951 94.5799C73.0361 95.4147 75.6842 97.9462 77.1792 99.3408C78.1298 100.124 78.9517 101.078 79.6986 102.043C79.9116 102.472 80.0999 104.356 80.5163 109.493C81.0157 115.765 81.6812 124.306 82.6481 127.38C84.0082 131.62 87.3364 136.272 92.1754 135.363C95.9009 134.686 99.7865 124.818 100.994 120.904L95.2946 90.6818C92.3321 94.6131 90.1927 98.9637 88.8763 103.733C88.833 103.969 88.6293 104.15 88.3939 104.107C88.1691 104.138 87.9982 104.01 87.8917 103.795C87.5405 102.928 87.2748 102.125 86.9447 101.407C86.9342 101.332 86.9131 101.182 86.9026 101.107C87.0865 100.241 87.3489 97.7587 86.6559 96.6335C86.1127 95.4872 85.7839 94.2344 85.6798 92.95C85.6599 92.2651 85.4797 91.5263 85.235 90.873C85.0325 90.5194 84.6157 90.2723 84.1661 90.3355C83.6416 90.4092 83.4367 91.1257 83.4249 91.5859C83.3816 91.8212 83.1778 92.0027 82.8781 92.0448C82.6533 92.0764 82.3969 91.8832 82.3548 91.5834C82.2705 90.984 81.8667 89.7417 81.3317 89.7405C80.9465 89.7182 80.6034 89.9957 80.6561 90.3703L80.6666 90.4453C80.7087 90.745 80.4406 91.0119 80.1303 90.9791C79.8201 90.9463 79.5637 90.7531 79.5965 90.4428C79.5333 89.9933 79.4057 89.6291 79.0639 89.3715C78.8075 89.1783 78.5721 89.135 78.2724 89.1771C77.0735 89.3456 77.0079 89.9661 77.0184 90.0411C77.0605 90.3408 76.8568 90.5222 76.5571 90.5644C76.3323 90.5959 76.0864 90.4777 75.9694 90.1885C75.7996 89.5246 75.2775 88.5282 74.8069 88.4416C74.7109 88.3022 74.636 88.3128 74.636 88.3128Z" fill="#231F20"/>
<path d="M102.338 85.3363L94.8619 88.1444L102.487 137.505C102.487 137.505 128.468 147.302 145.229 132.262L134.391 79.0739L125.087 81.375L102.338 85.3363Z" fill="#F6AD3D"/>
<path d="M127.721 80.5461L121.224 81.0771L119.677 74.4174L119.412 73.0792L118.438 68.8607L108.247 70.2929L108.524 75.5265L108.854 81.1346L108.925 82.7293L103.601 85.0821C103.601 85.0821 102.853 93.8982 110.484 98.1746C118.115 102.451 127.468 97.7744 128.214 89.4934C128.961 81.2124 127.721 80.5461 127.721 80.5461Z" fill="white"/>
<path d="M118.559 100.173C115.711 100.573 112.888 100.053 110.397 98.6452C102.531 94.3255 103.226 85.1348 103.216 85.0598C103.269 84.8994 103.323 84.739 103.538 84.6325L108.508 82.4821L107.808 70.431C107.765 70.1313 107.969 69.9498 108.269 69.9077L118.46 68.4755C118.759 68.4334 119.016 68.6266 119.047 68.8514L120.287 74.4081L121.771 80.6182L127.818 80.1503C127.893 80.1398 127.968 80.1293 128.053 80.1937C128.545 80.4302 129.655 81.8025 128.995 89.6129C128.633 93.5608 126.303 97.0976 122.81 98.8875C121.439 99.4622 120.058 99.962 118.559 100.173ZM104.263 85.4474C104.249 86.9777 104.415 94.1372 110.87 97.6618C114.355 99.6173 118.646 99.702 122.203 97.8267C125.406 96.1538 127.554 92.9484 127.819 89.3962C128.325 83.212 127.772 81.4558 127.484 81.0378L121.287 81.5267C121.062 81.5583 120.806 81.365 120.774 81.1403L118.072 69.5233L108.78 70.8292L109.545 82.7948C109.577 83.0196 109.448 83.1906 109.234 83.2971L104.263 85.4474Z" fill="#231F20"/>
<path d="M105.376 66.7233C104.367 63.3502 98.5565 63.3263 99.4249 67.3305C99.6894 68.6687 100.404 69.9438 101.45 70.8665C102.572 71.7786 104.123 71.9427 105.398 71.2286" fill="white"/>
<path d="M104.24 72.2318C103.116 72.3898 102.004 72.0876 101.063 71.3792C99.8564 70.4027 99.1213 68.9778 98.8357 67.4896C98.3805 65.3377 99.6029 64.2489 100.856 63.92C102.997 63.3898 105.145 64.5397 105.815 66.5852C105.932 66.8744 105.739 67.1308 105.45 67.2478C105.16 67.3649 104.904 67.1717 104.787 66.8825C104.266 65.351 102.62 64.5126 101.067 64.8836C100.479 65.0428 99.4822 65.5649 99.7888 67.2029C99.9678 68.4767 100.661 69.6019 101.622 70.4602C102.573 71.2435 103.889 71.3642 104.949 70.7567C105.153 70.5752 105.538 70.5975 105.73 70.8762C105.912 71.0799 105.889 71.4651 105.611 71.6571C105.611 71.6571 105.536 71.6676 105.546 71.7426C105.193 71.9451 104.764 72.1581 104.24 72.2318Z" fill="#231F20"/>
<path d="M119.463 64.7434C119.503 61.2228 125.082 59.5982 125.351 63.6867C125.466 65.046 125.131 66.4685 124.379 67.6439C123.552 68.8298 122.106 69.4151 120.684 69.0802" fill="white"/>
<path d="M122 69.7354C121.55 69.7986 121.015 69.7974 120.534 69.6358C120.288 69.5175 120.096 69.2388 120.139 69.0035C120.258 68.7577 120.536 68.5657 120.772 68.609C121.959 68.9006 123.191 68.4219 123.889 67.4069C124.576 66.3169 124.932 65.0443 124.753 63.7704C124.671 62.1008 123.569 61.8736 122.959 61.8829C121.365 61.9542 120.088 63.2034 119.935 64.8296C119.902 65.1398 119.698 65.3213 119.399 65.3634C119.088 65.3306 118.907 65.1269 118.865 64.8272C119.02 62.6659 120.768 60.9684 122.897 60.8983C124.192 60.8691 125.667 61.5787 125.823 63.7728C125.959 65.282 125.57 66.8649 124.754 68.1258C124.185 68.9699 123.124 69.5775 122 69.7354Z" fill="#231F20"/>
<path d="M108.825 79.8402L108.61 75.5914C110.59 75.5424 112.538 75.2686 114.465 74.8449C116.178 74.5278 117.86 73.9858 119.424 73.1547C119.702 72.9627 118.18 78.984 108.825 79.8402Z" fill="#231F20"/>
<path d="M109.872 80.2276L108.898 80.3645C108.748 80.3855 108.588 80.3317 108.502 80.2673C108.417 80.2029 108.321 80.0635 108.3 79.9137L108.084 75.6648C108.063 75.5149 108.117 75.3545 108.182 75.2691C108.246 75.1836 108.385 75.0876 108.546 75.1415C110.526 75.0925 112.399 74.8292 114.316 74.3306C115.954 74.024 117.635 73.482 119.124 72.6614C119.338 72.5549 119.574 72.5982 119.734 72.6521C120.076 72.9097 119.904 73.316 119.85 73.4764C119.796 73.6368 118.189 79.0586 109.872 80.2276ZM109.285 79.3166C115.301 78.624 117.716 75.6867 118.49 74.126C117.183 74.6153 115.866 75.0297 114.527 75.2942C112.761 75.7717 110.887 76.035 109.057 76.0629L109.285 79.3166Z" fill="#231F20"/>
<path d="M114.557 76.0541L113.658 76.1804C109.312 76.7912 105.37 73.7539 104.77 69.4827L103.032 57.1189L112.34 58.1031L119.592 54.7915L121.33 67.1554C121.866 71.512 118.903 75.4433 114.557 76.0541Z" fill="white"/>
<path d="M114.631 76.579L113.732 76.7054C109.161 77.3478 104.888 74.1277 104.246 69.5568L102.508 57.193C102.466 56.8933 102.659 56.6369 102.959 56.5948C103.034 56.5842 103.034 56.5842 103.109 56.5737L112.256 57.5041L119.369 54.2885C119.508 54.1925 119.669 54.2463 119.829 54.3002C119.99 54.3541 120.086 54.4934 120.117 54.7182L121.855 67.082C122.433 71.7384 119.277 75.9261 114.631 76.579ZM103.577 57.7305L105.22 69.4199C105.788 73.4663 109.538 76.225 113.52 75.7418L114.419 75.6154C118.466 75.0467 121.224 71.2969 120.656 67.2505L119.013 55.5611L112.404 58.5531C112.329 58.5637 112.254 58.5742 112.104 58.5953L103.577 57.7305Z" fill="#231F20"/>
<path d="M122.115 61.314C122.04 61.3245 121.965 61.335 121.954 61.2601C121.644 61.2273 121.527 60.9381 121.56 60.6278C122.402 57.3766 121.917 53.9297 120.212 51.0365C118.442 48.2288 115.235 46.6163 111.896 46.7799C110.622 46.959 109.294 47.2984 108.148 47.8415C106.692 48.3519 105.342 49.0765 104.258 50.0693C102.799 51.6497 101.949 53.7559 101.87 55.9067C101.8 58.1324 102.041 60.3909 102.571 62.5323C102.614 62.8321 102.42 63.0884 102.121 63.1306C101.821 63.1727 101.565 62.9795 101.522 62.6798C100.971 60.3884 100.73 58.13 100.778 55.7544C100.816 53.3039 101.784 50.9518 103.447 49.1899C104.67 48.1012 106.159 47.2806 107.68 46.6847C108.976 46.1205 110.368 45.6956 111.717 45.5061C115.431 45.2898 118.969 47.0849 121.016 50.2357C122.903 53.3327 123.44 57.1542 122.555 60.6408C122.468 61.1114 122.339 61.2824 122.115 61.314Z" fill="#231F20"/>
<path d="M94.2709 126.892C93.9711 126.934 93.7147 126.741 93.6726 126.441C93.6621 126.366 93.6621 126.366 93.6516 126.291C94.8298 121.082 93.4239 118.147 91.6774 114.419C91.3578 113.776 91.0277 113.059 90.7831 112.405C89.5481 109.599 88.5274 106.686 87.721 103.666C87.6788 103.366 87.7971 103.121 88.0863 103.003C88.386 102.961 88.6319 103.08 88.749 103.369C89.5449 106.313 90.4801 109.162 91.7151 111.969C92.0452 112.686 92.3647 113.329 92.6094 113.982C94.3665 117.785 95.8145 121.02 94.6034 126.539C94.7099 126.754 94.4957 126.86 94.2709 126.892Z" fill="#231F20"/>
<path d="M102.191 97.8886C103.929 97.6443 104.857 94.0243 104.264 89.8032C103.671 85.582 101.781 82.3581 100.043 82.6024C98.3045 82.8467 97.3764 86.4666 97.9697 90.6878C98.5629 94.9089 100.453 98.1328 102.191 97.8886Z" fill="#231F20"/>
<path d="M102.265 98.413C100.167 98.7078 98.0982 95.4072 97.4452 90.7614C96.7923 86.1156 97.8709 82.3726 99.969 82.0777C102.067 81.7829 104.136 85.0835 104.789 89.7293C105.442 94.3751 104.363 98.1181 102.265 98.413ZM100.106 83.0518C98.8321 83.2309 97.8191 86.3533 98.4194 90.6245C99.0196 94.8956 100.854 97.6179 102.128 97.4388C103.402 97.2598 104.415 94.1374 103.814 89.8662C103.214 85.5951 101.38 82.8728 100.106 83.0518Z" fill="#231F20"/>
<path d="M91.4759 99.3942C93.214 99.1499 94.1421 95.5299 93.5489 91.3088C92.9556 87.0876 91.0657 83.8637 89.3276 84.108C87.5894 84.3523 86.6613 87.9722 87.2546 92.1934C87.8478 96.4145 89.7378 99.6384 91.4759 99.3942Z" fill="#231F20"/>
<path d="M91.549 99.9188C89.4509 100.214 87.3824 96.913 86.7294 92.2672C86.0765 87.6214 87.1551 83.8785 89.2532 83.5836C91.3513 83.2887 93.4199 86.5894 94.0728 91.2352C94.7257 95.881 93.6471 99.6239 91.549 99.9188ZM89.3901 84.5577C88.1163 84.7367 87.1033 87.8592 87.7035 92.1303C88.3038 96.4015 90.1382 99.1237 91.4121 98.9447C92.6859 98.7657 93.6989 95.6432 93.0987 91.3721C92.4984 87.1009 90.664 84.3787 89.3901 84.5577Z" fill="#231F20"/>
<path d="M100.032 82.5273L89.3167 84.0332L91.4755 99.3943L102.191 97.8884L100.032 82.5273Z" fill="#231F20"/>
<path d="M102.265 98.4133L91.5493 99.9192C91.2496 99.9613 90.9932 99.7681 90.9511 99.4684L88.7922 84.1073C88.7501 83.8076 88.9433 83.5512 89.243 83.509L99.9583 82.0031C100.258 81.961 100.514 82.1542 100.557 82.4539L102.715 97.815C102.758 98.1148 102.564 98.3711 102.265 98.4133ZM91.9264 98.7964L101.593 97.4379L99.5813 83.1259L89.915 84.4844L91.9264 98.7964Z" fill="#231F20"/>
<path d="M165.422 160.142C169.933 159.508 173.076 155.337 172.442 150.826C171.808 146.316 167.637 143.173 163.126 143.807C158.616 144.441 155.473 148.611 156.107 153.122C156.741 157.633 160.911 160.776 165.422 160.142Z" fill="#231F20"/>
<path d="M165.495 160.667C160.7 161.341 156.255 157.992 155.581 153.196C154.907 148.4 158.256 143.956 163.052 143.282C167.848 142.608 172.292 145.957 172.966 150.753C173.64 155.549 170.291 159.993 165.495 160.667ZM163.199 144.331C158.928 144.932 156.041 148.852 156.631 153.049C157.22 157.245 161.152 160.207 165.348 159.618C169.544 159.028 172.506 155.096 171.917 150.9C171.327 146.704 167.396 143.742 163.199 144.331Z" fill="#231F20"/>
<path d="M164.643 154.597C166.091 154.394 167.101 153.054 166.897 151.606C166.693 150.157 165.354 149.148 163.906 149.352C162.457 149.555 161.448 150.895 161.652 152.343C161.855 153.792 163.195 154.801 164.643 154.597Z" fill="white"/>
<path d="M164.717 155.121C162.994 155.363 161.445 154.129 161.213 152.48C160.971 150.757 162.195 149.133 163.854 148.976C165.577 148.734 167.201 149.958 167.358 151.617C167.589 153.265 166.441 154.879 164.717 155.121ZM163.991 149.95C162.867 150.108 162.019 151.145 162.177 152.268C162.335 153.392 163.371 154.24 164.57 154.072C165.769 153.903 166.541 152.878 166.383 151.754C166.14 150.565 165.114 149.792 163.991 149.95Z" fill="#231F20"/>
</svg>
