<svg width="289" height="250" viewBox="0 0 289 250" fill="none" xmlns="http://www.w3.org/2000/svg">
<circle cx="125" cy="125" r="125" fill="white" fill-opacity="0.5"/>
<path d="M258.999 249.194H62.0537L91.5142 19.5413H288.459L258.999 249.194Z" fill="white"/>
<path d="M258.998 249.735H62.0532C61.7439 249.735 61.512 249.504 61.512 249.194C61.512 249.194 61.512 249.194 61.512 249.117L90.9725 19.4639C90.9725 19.1546 91.2045 19 91.5138 19H288.459C288.613 19 288.768 19.0773 288.845 19.1546C288.923 19.3093 289 19.4639 289 19.6186L259.539 249.272C259.539 249.581 259.307 249.813 258.998 249.735ZM62.6718 248.653H258.534L287.84 20.0825H91.9777L62.6718 248.653Z" fill="#231F20"/>
<path d="M259.849 47.5327H135.047C132.728 47.61 130.795 45.7543 130.717 43.4345C130.717 43.2026 130.717 42.8933 130.795 42.6613L131.104 40.1096C131.491 37.3259 133.81 35.3155 136.594 35.2382H261.395C263.715 35.1608 265.648 37.0166 265.725 39.3364C265.725 39.5683 265.725 39.8776 265.648 40.1096L265.339 42.6613C264.952 45.3676 262.632 47.4554 259.849 47.5327Z" fill="#D1D3D4"/>
<path d="M117.495 37.2486H106.36C106.051 37.2486 105.819 37.0166 105.819 36.7073C105.819 36.398 106.051 36.166 106.36 36.166H117.495C117.804 36.166 118.036 36.398 118.036 36.7073C118.036 37.0166 117.804 37.2486 117.495 37.2486Z" fill="#231F20"/>
<path d="M116.876 42.1199H105.742C105.432 42.1199 105.2 41.8879 105.2 41.5786C105.2 41.2693 105.432 41.0374 105.742 41.0374H116.876C117.186 41.0374 117.418 41.2693 117.418 41.5786C117.418 41.8879 117.186 42.1199 116.876 42.1199Z" fill="#231F20"/>
<path d="M116.258 46.9915H105.123C104.814 46.9915 104.582 46.7595 104.582 46.4502C104.582 46.1409 104.814 45.9089 105.123 45.9089H116.258C116.567 45.9089 116.799 46.1409 116.799 46.4502C116.799 46.7595 116.567 46.9915 116.258 46.9915Z" fill="#231F20"/>
<path d="M251.885 107.691H107.752C100.716 107.691 95.7669 101.969 96.6948 95.0096L99.0919 76.5291C100.02 69.4926 106.36 63.8479 113.397 63.8479H257.529C264.566 63.8479 269.514 69.5699 268.587 76.5291L266.19 95.0096C265.184 102.123 259.076 107.459 251.885 107.691Z" fill="white"/>
<path d="M251.885 108.155H107.752C104.35 108.232 101.102 106.84 98.8599 104.288C96.6175 101.659 95.6123 98.2572 96.1536 94.8549L98.5506 76.2971C99.4785 69.0286 106.128 63.152 113.397 63.152H257.529C260.931 63.0747 264.179 64.4665 266.421 67.0182C268.664 69.6472 269.669 73.0495 269.128 76.4517L266.731 94.9322C265.803 102.278 259.153 108.155 251.885 108.155ZM113.397 64.3118C106.438 64.4665 100.638 69.6472 99.6331 76.5291L97.2361 95.0096C96.7721 98.1025 97.7 101.196 99.7105 103.593C101.721 105.912 104.737 107.149 107.752 107.072H251.885C258.612 107.072 264.798 101.582 265.648 94.8549L268.045 76.2971C268.509 73.2041 267.581 70.1112 265.571 67.7141C263.483 65.4717 260.622 64.2345 257.529 64.2345H113.397V64.3118Z" fill="#231F20"/>
<path d="M136.231 96.0969C142.771 89.961 143.691 80.316 138.286 74.5542C132.88 68.7924 123.196 69.0958 116.656 75.2317C110.116 81.3676 109.195 91.0126 114.601 96.7744C120.006 102.536 129.69 102.233 136.231 96.0969Z" fill="#FFB300"/>
<path d="M136.903 80.8595C136.826 81.0142 136.671 81.1688 136.517 81.3235L123.603 92.7675C123.139 93.1541 122.83 93.1541 122.521 92.7675L116.954 86.1176C116.644 85.7309 116.722 85.4216 117.108 85.1123L118.887 83.6432C119.273 83.3339 119.583 83.3339 119.815 83.6432C120.897 84.9577 122.057 86.2722 123.139 87.5094C123.449 87.896 123.758 87.896 124.222 87.5094L134.274 78.6171C134.738 78.2305 135.047 78.2305 135.357 78.6171C135.821 79.0811 136.207 79.6223 136.671 80.1636C136.749 80.3182 136.826 80.4729 136.903 80.6275V80.8595Z" fill="white"/>
<path d="M248.714 79.0809H156.08C155.152 79.0809 154.456 78.385 154.456 77.4571C154.456 76.5292 155.152 75.8333 156.08 75.8333H248.714C249.642 75.8333 250.338 76.5292 250.338 77.4571C250.338 78.3076 249.565 79.0809 248.714 79.0809Z" fill="#D1D3D4"/>
<path d="M227.759 94.7003H153.992C153.064 94.7003 152.368 94.0043 152.368 93.0764C152.368 92.1485 153.064 91.4526 153.992 91.4526H227.759C228.687 91.4526 229.383 92.1485 229.383 93.0764C229.383 93.927 228.687 94.7003 227.759 94.7003Z" fill="#D1D3D4"/>
<path d="M245.389 158.416H101.257C94.2206 158.416 89.2718 152.771 90.1997 145.734L92.5968 127.177C93.6793 120.063 99.7106 114.65 106.902 114.495H251.034C258.071 114.495 263.019 120.14 262.091 127.177L259.694 145.734C258.612 152.925 252.581 158.261 245.389 158.416Z" fill="white"/>
<path d="M245.389 158.957H101.257C97.8543 159.034 94.6067 157.642 92.3643 155.091C90.1219 152.462 89.1167 149.059 89.6579 145.657L92.055 127.099C92.9829 119.831 99.6328 113.954 106.901 113.954H251.034C254.436 113.877 257.684 115.269 259.926 117.82C262.168 120.449 263.174 123.852 262.632 127.254L260.235 145.734C259.307 153.08 252.58 158.957 245.389 158.957ZM106.901 115.114C99.9421 115.269 94.1428 120.449 93.1375 127.331L90.7405 145.889C90.2765 148.982 91.2044 152.075 93.2149 154.395C95.3026 156.637 98.2409 157.952 101.257 157.874H245.389C252.116 157.874 258.302 152.384 259.153 145.657L261.55 127.099C262.014 124.006 261.086 120.913 259.075 118.516C257.065 116.197 254.049 114.959 251.034 115.037L106.901 115.114Z" fill="#231F20"/>
<path d="M118.036 152.23C114.015 152.307 110.149 150.606 107.443 147.59C104.736 144.497 103.576 140.399 104.195 136.301C105.278 127.641 113.242 120.604 121.902 120.604C125.923 120.527 129.789 122.228 132.496 125.244C135.202 128.337 136.362 132.435 135.743 136.456C134.661 145.193 126.696 152.23 118.036 152.23ZM121.902 121.764C113.783 121.764 106.283 128.414 105.278 136.533C104.736 140.244 105.819 144.111 108.371 146.894C110.845 149.678 114.402 151.224 118.113 151.147C126.232 151.147 133.733 144.497 134.738 136.378C135.279 132.667 134.197 128.878 131.722 126.017C129.248 123.233 125.614 121.687 121.902 121.764Z" fill="#D1D3D4"/>
<path d="M130.408 131.661C130.331 131.816 130.176 131.971 130.021 132.125L117.108 143.569C116.644 143.956 116.335 143.956 116.026 143.569L110.458 136.919C110.149 136.533 110.226 136.223 110.613 135.914L112.392 134.445C112.778 134.136 113.087 134.136 113.319 134.445L116.644 138.311C116.954 138.698 117.263 138.698 117.727 138.311L127.779 129.419C128.243 129.032 128.475 129.032 128.862 129.419C129.326 129.96 129.712 130.424 130.176 130.965C130.253 131.12 130.331 131.275 130.408 131.429V131.661Z" fill="white"/>
<path d="M242.219 129.806H149.507C148.579 129.806 147.884 129.11 147.884 128.182C147.884 127.254 148.579 126.558 149.507 126.558H242.142C243.07 126.558 243.766 127.254 243.766 128.182C243.843 129.11 243.07 129.806 242.219 129.806Z" fill="#D1D3D4"/>
<path d="M221.264 145.425H147.497C146.569 145.425 145.873 144.729 145.873 143.801C145.873 142.873 146.569 142.177 147.497 142.177H221.264C222.192 142.177 222.888 142.873 222.888 143.801C222.888 144.729 222.192 145.425 221.264 145.425Z" fill="#D1D3D4"/>
<path d="M238.816 209.218H94.7615C87.725 209.218 82.7762 203.496 83.7041 196.536L86.1012 177.979C87.1837 170.865 93.215 165.452 100.406 165.297H244.538C251.575 165.297 256.524 171.019 255.596 177.979L253.199 196.536C252.116 203.65 246.085 209.063 238.816 209.218Z" fill="white"/>
<path d="M238.816 209.759H94.7615C91.3592 209.836 88.1116 208.444 85.8692 205.893C83.6268 203.264 82.6216 199.861 83.1628 196.459L85.5599 177.901C86.4878 170.633 93.1377 164.756 100.406 164.756H244.538C247.941 164.679 251.188 166.071 253.431 168.622C255.673 171.251 256.678 174.654 256.137 178.056L253.74 196.614C252.812 203.882 246.085 209.759 238.816 209.759ZM100.406 165.839C93.6789 165.839 87.493 171.329 86.6424 178.056L84.2454 196.614C83.7814 199.707 84.7093 202.8 86.7197 205.197C88.8075 207.439 91.7458 208.754 94.7615 208.676H238.894C245.621 208.676 251.807 203.186 252.658 196.459L255.055 177.901C255.519 174.808 254.591 171.715 252.58 169.318C250.492 167.076 247.554 165.761 244.538 165.839H100.406Z" fill="#231F20"/>
<path d="M111.541 203.032C107.52 203.109 103.654 201.408 100.948 198.47C98.2412 195.377 97.0814 191.279 97.7 187.258C98.7825 178.597 106.747 171.561 115.407 171.561C119.428 171.484 123.294 173.185 126.001 176.2C128.63 179.293 129.867 183.391 129.248 187.412C128.088 195.995 120.201 203.032 111.541 203.032ZM115.407 172.566C107.288 172.566 99.7877 179.216 98.7825 187.335C98.2412 191.047 99.3238 194.835 101.798 197.774C104.273 200.557 107.829 202.104 111.541 202.027C119.66 202.027 127.16 195.377 128.166 187.258C128.707 183.546 127.624 179.757 125.15 176.896C122.676 174.035 119.119 172.489 115.407 172.566Z" fill="#D1D3D4"/>
<path d="M123.836 182.386C123.758 182.541 123.604 182.695 123.449 182.85L110.536 194.294C110.072 194.68 109.763 194.68 109.453 194.294L103.886 187.644C103.577 187.257 103.654 186.948 104.041 186.639L105.819 185.17C106.206 184.86 106.515 184.86 106.747 185.17L110.072 189.036C110.381 189.422 110.69 189.422 111.154 189.036L121.207 180.143C121.67 179.757 121.98 179.757 122.289 180.143C122.753 180.607 123.14 181.149 123.604 181.69C123.681 181.845 123.758 181.999 123.836 182.077V182.386Z" fill="white"/>
<path d="M235.724 180.608H143.012C142.084 180.608 141.388 179.912 141.388 178.984C141.388 178.056 142.084 177.36 143.012 177.36H235.646C236.574 177.36 237.27 178.056 237.27 178.984C237.27 179.912 236.574 180.608 235.724 180.608Z" fill="#D1D3D4"/>
<path d="M214.769 196.227H141.002C140.074 196.227 139.378 195.531 139.378 194.603C139.378 193.675 140.074 192.979 141.002 192.979H214.769C215.697 192.979 216.393 193.675 216.393 194.603C216.393 195.531 215.697 196.227 214.769 196.227Z" fill="#D1D3D4"/>
<path d="M230.311 237.75C230.234 237.75 230.079 237.75 230.002 237.673L221.574 231.796C221.419 231.719 221.342 231.487 221.342 231.332C221.342 231.178 221.419 230.946 221.574 230.868L231.548 224.992C231.78 224.837 232.167 224.914 232.322 225.146C232.476 225.378 232.399 225.688 232.167 225.919C232.167 225.919 232.167 225.919 232.09 225.919L222.888 231.332L230.62 236.745C230.852 236.9 230.93 237.286 230.775 237.518C230.698 237.673 230.466 237.75 230.311 237.75Z" fill="#D1D3D4"/>
<path d="M237.579 237.75C237.27 237.75 237.038 237.518 237.038 237.209C237.038 237.054 237.115 236.822 237.27 236.745L246.472 231.332L238.739 225.919C238.507 225.765 238.43 225.456 238.585 225.224C238.585 225.224 238.585 225.224 238.585 225.146C238.739 224.914 239.049 224.837 239.358 224.992L247.786 230.868C247.941 230.946 248.018 231.178 248.018 231.332C248.018 231.487 247.941 231.719 247.709 231.796L237.734 237.673C237.811 237.673 237.734 237.75 237.579 237.75Z" fill="#D1D3D4"/>
<path d="M74.2706 161.354C91.9078 161.354 106.206 147.056 106.206 129.419C106.206 111.782 91.9078 97.4841 74.2706 97.4841C56.6334 97.4841 42.3357 111.782 42.3357 129.419C42.3357 147.056 56.6334 161.354 74.2706 161.354Z" fill="#231F20"/>
<path d="M74.2704 161.818C56.3311 161.818 41.7942 147.281 41.7942 129.342C41.7942 111.402 56.3311 96.8655 74.2704 96.8655C91.5137 96.8655 105.741 110.32 106.669 127.486C107.674 145.348 94.0654 160.735 76.2035 161.74C75.5075 161.818 74.889 161.818 74.2704 161.818ZM74.3477 98.0253C73.7291 98.0253 73.1105 98.0253 72.4919 98.1027C55.1713 99.1079 42.0262 113.954 43.0314 131.275C44.0366 148.595 58.8828 161.741 76.2035 160.735C93.5241 159.73 106.669 144.884 105.664 127.563C104.659 111.016 90.8951 98.0253 74.3477 98.0253Z" fill="#231F20"/>
<path d="M69.3219 161.663C86.959 161.663 101.257 147.365 101.257 129.728C101.257 112.091 86.959 97.7932 69.3219 97.7932C51.6847 97.7932 37.387 112.091 37.387 129.728C37.387 147.365 51.6847 161.663 69.3219 161.663Z" fill="#FFB300"/>
<path d="M69.3218 162.127C51.3826 162.127 36.923 147.513 37.0003 129.651C37.0003 111.712 51.6146 97.2521 69.4765 97.3294C87.4157 97.3294 101.875 111.944 101.798 129.806C101.798 146.972 88.3436 161.122 71.2549 162.127C70.559 162.127 69.9404 162.127 69.3218 162.127ZM69.3992 98.3346C68.7806 98.3346 68.162 98.3346 67.5434 98.412C50.2228 99.4172 37.0776 114.263 38.0828 131.584C39.0881 148.905 53.9343 162.05 71.2549 161.045C88.5756 160.039 101.721 145.193 100.715 127.872C99.7103 111.248 85.9465 98.3346 69.3992 98.3346Z" fill="#231F20"/>
<path d="M89.4263 118.903C89.1943 119.212 88.9623 119.521 88.7303 119.831L63.9866 144.574C63.136 145.425 62.5174 145.425 61.6668 144.574L47.7485 130.192C47.1299 129.728 47.0526 128.878 47.5165 128.259C47.5938 128.104 47.7485 128.027 47.9031 127.95L51.3827 124.779C51.8467 124.238 52.6972 124.161 53.2385 124.625C53.3158 124.702 53.3932 124.779 53.4705 124.857L61.7442 133.285C62.5947 134.136 63.2133 134.136 64.0639 133.285L83.2403 114.186C84.0909 113.335 84.7095 113.335 85.56 114.186C86.6426 115.269 87.7251 116.351 88.8077 117.434C89.0396 117.743 89.2716 118.052 89.5036 118.362L89.4263 118.903Z" fill="white"/>
</svg>
