<svg width="101" height="26" viewBox="0 0 101 26" fill="none" xmlns="http://www.w3.org/2000/svg">
<circle cx="13" cy="13" r="13" fill="#2E517D"/>
<path d="M23 14C21.7735 13.496 19.5 11.5 15.5 14.5C14.4485 13.912 12.5 12.5 9.5 15C9.1495 13.572 9.0795 10.322 9.5 7.5C9.675 7.08 10.397 6.7825 12.5 9L15 6.5C14.825 5.408 13.5 4 9.5 4C8 4 6.631 5.2825 6 7.5C5.2115 9.7675 4 15 4 18C4 18.924 5.25 21 10 21C11 21 13.925 21.1125 17.5 19.5L20.5 22" stroke="white" stroke-width="2" stroke-linecap="round" stroke-linejoin="round"/>
<path d="M36.9766 18L31.2124 8.28076H34.6548L37.2622 12.6021L39.313 9.08643V13.979L36.9766 18ZM39.7891 18V8.28076H43.0264V18H39.7891ZM31.2051 18V9.18164L34.23 14.2573V18H31.2051ZM47.9321 18L45.9912 16.0591V12.1626L47.9321 10.2217H49.2285V18H47.9321ZM49.7412 14.8799V13.5249H51.4478V12.1626H49.7412V10.2217H52.4878L54.4287 12.1626V14.8799H49.7412ZM49.7412 18V16.1836H54.0918V17.0259L53.125 18H49.7412ZM59.4224 18L57.4741 16.0591V12.1626H56.8296V10.2217H57.4741V9.37939L60.7114 8.28076V16.0591H62.8501V18H59.4224ZM61.2241 12.1626V10.2217H62.9673V12.1626H61.2241ZM70.6196 18V12.1626H66.0127V11.1958L66.9868 10.2217H71.8428L73.7837 12.1626V18H70.6196ZM66.6646 18L65.3608 16.7183V14.77L66.6646 13.4736H70.1069V14.8213H68.437V16.1836H70.1069V17.0405L69.1401 18H66.6646ZM76.7998 18V8.28076H80.0371V12.624H83.0254V14.5356H80.0371V18H76.7998ZM82.249 11.5034V10.2217H80.5498V8.28076H85.4863V11.5034H82.249ZM88.2021 9.25488V7.18945H91.4468V9.25488H88.2021ZM88.2021 18V10.2217H91.4468V18H88.2021ZM96.6968 18L94.7485 16.0591V12.1626H94.104V10.2217H94.7485V9.37939L97.9858 8.28076V16.0591H100.125V18H96.6968ZM98.4985 12.1626V10.2217H100.242V12.1626H98.4985Z" fill="#2E517D"/>
</svg>
